<?xml version="1.0" encoding="utf-8"?>
<!-- Generator: Adobe Illustrator 24.2.3, SVG Export Plug-In . SVG Version: 6.00 Build 0)  -->
<svg version="1.1" id="Capa_1" xmlns="http://www.w3.org/2000/svg" xmlns:xlink="http://www.w3.org/1999/xlink" x="0px" y="0px"
	 viewBox="0 0 417.1 417.1" style="enable-background:new 0 0 417.1 417.1;" xml:space="preserve">
<style type="text/css">
	.st0{fill:#30323A;}
	.st1{fill:#F45557;}
	.st2{fill:#F2F9FE;}
	.st3{fill:#A9A9A9;}
	.st4{fill:#F9DE5A;}
	.st5{fill:#989898;}
	.st6{fill:#B9BABD;}
	.st7{fill:#797A7F;}
	.st8{fill:#F45557;stroke:#30323A;stroke-width:0.7677;stroke-miterlimit:10;}
	.st9{fill:#A9A9A9;stroke:#30323A;stroke-width:0.7677;stroke-miterlimit:10;}
	.st10{fill:#F9DE5A;stroke:#30323A;stroke-width:0.7677;stroke-miterlimit:10;}
	.st11{fill:#F2F9FE;stroke:#30323A;stroke-width:0.7677;stroke-miterlimit:10;}
	.st12{fill:#F45557;stroke:#30323A;stroke-width:2;stroke-miterlimit:10;}
	.st13{fill:#F2F9FE;stroke:#30323A;stroke-width:2;stroke-miterlimit:10;}
</style>
<g>
	<path class="st0" d="M307.6,233.5c-3.7,22.8-14,42.2-31,58c-5.8,5.4-12.3,10-19.3,13.9c-9.2,5-14.4,12.5-14.6,23h0
		c0.1,15.8,1.2,31.6-0.6,47.3c-1.3,11.7-10.5,20.3-22.6,21.4c-7.8,0.7-15.8,1-23.7-0.4c-10.1-0.8-20.3-9.9-21.4-20
		c-1.7-15.9-0.6-31.8-0.6-47.7c0-0.2,0.2-0.4,0.4-0.7c-0.7-10.9-6.2-18.4-15.7-23.7c-20.1-11.2-34.3-27.7-43.2-48.8
		c-0.2-0.6-0.4-1.2-0.5-1.8c-3.6-6.6-5-13.8-6-21.1c-2.8-19.9-0.2-39.1,8.6-57.2c9.4-19.3,23.6-34.4,42.6-44.9
		c15.9-8.7,33.1-12.8,51.3-12.4c1.4,0,2.9-0.3,4.1,0.7c21.1,1.1,39.7,8.6,56,21.7c20.1,16.1,31.9,37.1,36.3,62.4
		c0.4,2.1,0.3,4.3,0.4,6.5C309.5,217.6,308.9,225.6,307.6,233.5z"/>
</g>
<g>
	<path class="st1" d="M215.2,121.6c20.4,1,38.5,8.4,54.3,21.2c19.5,15.7,31,36.3,35.2,60.9c0.4,2.1,0.3,4.2,0.4,6.3
		c-0.9,0.5-1.7-0.1-2.5-0.4c-5.2-1.9-8.2,0-8.6,5.6c-0.6,8.5-2.3,16.7-5.1,24.8c-8,22.6-22.1,40.1-42.9,52.2
		c-6,3.5-11.3,7.5-14.1,14.3c-2,4.8-1.4,9.8-1.6,14.7c-0.1,2,0.7,4.4-2,5.5c-1.5,0.4-3,0.4-4.4,0.4c-14.4,0-28.8,0-43.2,0
		c-1.8,0-3.8,0.3-5.3-1.2c-0.7-10.6-6-17.9-15.3-23.1c-19.5-10.9-33.2-27.1-41.8-47.7c-0.2-0.6-0.4-1.2-0.5-1.8
		c1.4-0.5,2.4,0.4,3.5,0.9c6.6,2.6,13-2,12.4-9c-2.6-32.8,8.2-60.6,32.4-82.9c11.9-11,26.2-18.1,41.8-22.3c1.4-0.4,2.9-0.7,4.3-1.2
		c6-2,7.9-8,4.2-13.2c-0.8-1.1-2-2-2.2-3.4C214.2,121.6,214.6,121.4,215.2,121.6z"/>
	<path class="st2" d="M215.2,121.6c-0.9,1.3,0.5,1.8,1.1,2.3c5.4,4.8,3.8,14.6-4.7,16.4c-16.4,3.5-31,10.8-43.6,21.7
		c-11,9.5-19.6,21.1-25.5,34.5c-6.5,14.6-8.8,29.9-8.1,45.8c0.2,3.3,1.1,6.7-1.3,9.6c-3.2,4-8.3,6.8-15.4,1.5
		c-3.5-6.4-4.8-13.5-5.8-20.6c-2.7-19.4-0.2-38.2,8.4-55.9c9.1-18.9,22.9-33.6,41.3-43.8c15.4-8.5,32-12.5,49.7-12.2
		C212.6,121,214,120.6,215.2,121.6z"/>
	<path class="st3" d="M175.4,325.9c18,0,36-0.1,54-0.1c1-0.7,2-0.7,3,0c-3.6,8.2-1.5,16.8-1.9,25.3c-0.3,5.5,0.1,10.9-2.1,16.1
		c-3.9,9.4-13.1,15.8-23.2,15.9c-1.6,0-3.2-0.1-4.8,0.1c-4.8,0.5-6.2,2.9-4.3,7.3c0.3,0.7,0.8,1.3,0.4,2.1
		c-9.7-0.7-19.7-9.6-20.8-19.5c-1.6-15.5-0.6-31-0.6-46.6C175,326.3,175.3,326.1,175.4,325.9z"/>
	<path class="st4" d="M232.3,326c-1-0.1-2-0.2-3-0.2c0.1-5.1-0.6-10.3,0.3-15.3c1.8-9.1,7.8-14.9,15.7-19.2
		c14.6-8,25.8-19.6,34.3-33.9c8-13.3,12.5-27.7,13.3-43.3c0.3-5.7,5.5-9.1,12-4.2c1.5,7.8,0.9,15.6-0.3,23.4
		c-3.6,22.3-13.6,41.2-30,56.6c-5.7,5.3-11.9,9.8-18.7,13.5c-8.9,4.9-13.9,12.2-14.1,22.5C238.6,327.6,235.5,327.6,232.3,326z"/>
	<path class="st5" d="M232.3,326c3.1,0,6.3,0,9.4,0c0.1,15.4,1.2,30.8-0.5,46.1c-1.3,11.4-10.1,19.9-21.9,20.9
		c-7.6,0.7-15.3,0.9-23-0.4c-2-2.2-3.7-4.4-2.1-7.6c1.5-2.9,4.4-3.2,7.1-3c10.3,0.7,18.5-3,24.2-11.7c2.6-3.9,3.8-8.3,3.8-13
		c0-8.3,0.1-16.7,0-25C229.3,329.6,230,327.5,232.3,326z"/>
	<path class="st0" d="M202.5,172.4c0,6.2-2.1,9.9-6.4,11.8c-10.3,4.6-17.5,11.9-21.8,22.3c-2.5,6.1-9.8,8.4-15.8,5.8
		c-6.1-2.6-9.2-9.2-6.8-15.4c6.3-16.4,17.6-28.1,33.8-34.8C194.2,158.5,202.6,164.5,202.5,172.4z"/>
</g>
<g>
	<path class="st0" d="M302,111.6c0.3-0.5,0.2-1,0.3-1.5c0.6-2.3,1.8-4.3,3.5-5.9c7.5-7.2,14.9-14.5,22.4-21.7c2.2-2.1,4.9-3.3,8-3.5
		c0.1,0,0.2,0,0.2-0.1c0.1,0,0.2,0,0.3,0c0.2,0.1,0.5,0,0.7,0.1c5.2,0.2,9.6,3.6,11,8.7c1.3,4.4,0.4,8.5-2.9,11.8
		c-5.6,5.5-11.2,10.9-16.8,16.4c-2.1,2-4.2,4.1-6.3,6.1c-2.7,2.4-5.9,3.5-9.5,3.1c-4.9-0.6-8.3-3.3-10.2-7.9
		c-0.4-0.9-0.5-1.8-0.6-2.8c0-0.1,0-0.2-0.1-0.2c0-0.6,0-1.2,0-1.8c0.1-0.1,0.1-0.1,0-0.2C302,112,302,111.8,302,111.6z"/>
	<path class="st6" d="M337.3,79.1c-0.2,0-0.5,0.1-0.7-0.1C336.9,79,337.1,79,337.3,79.1C337.3,79,337.3,79,337.3,79.1z"/>
	<path class="st7" d="M302,112.1c0.1,0.1,0.1,0.1,0,0.2C302,112.3,302,112.2,302,112.1z"/>
	<path class="st1" d="M314.3,123.2c-5.1-0.1-9.3-3.7-10.1-8.4c-0.5-3.3,0.3-6.2,2.6-8.6c3.5-3.5,7.1-6.9,10.6-10.4
		c0.1-0.1,0.2-0.2,0.4,0c4.5,4.7,9.1,9.3,13.6,14c0.3,0.3,0.3,0.4,0,0.7c-3.5,3.4-7,6.8-10.5,10.1
		C319,122.4,316.6,123.2,314.3,123.2z"/>
	<path class="st2" d="M346.8,91.4c-0.1,2.8-1.2,5.2-3.2,7.2c-3.4,3.3-6.7,6.6-10.1,9.9c-0.2,0.2-0.3,0.2-0.6,0
		c-4.5-4.6-8.9-9.2-13.4-13.8c-0.4-0.4-0.4-0.4,0-0.9c3.3-3.2,6.6-6.4,9.9-9.6c2.1-2,4.6-3.1,7.5-3c4.7,0.1,8.5,3.3,9.6,7.9
		C346.7,89.8,346.8,90.5,346.8,91.4z"/>
	<path class="st0" d="M342.1,88.6c-0.4,0-0.6-0.2-0.9-0.5c-1.2-1.1-2.5-1.7-4.1-1.9c-1.9-0.2-3.7,0.3-5.2,1.6
		c-0.2,0.2-0.4,0.4-0.7,0.5c-0.4,0.2-1,0-1.3-0.4c-0.3-0.4-0.2-0.9,0.2-1.3c0.7-0.6,1.4-1.2,2.3-1.6c3.5-1.6,7.5-1,10.3,1.8
		c0.3,0.3,0.5,0.7,0.3,1.1C342.9,88.4,342.6,88.7,342.1,88.6z"/>
</g>
<g>
	<path class="st0" d="M102.1,125.6c-0.5-0.3-1-0.2-1.5-0.4c-2.3-0.6-4.3-1.8-5.9-3.5c-7.2-7.5-14.3-15-21.5-22.6
		c-2.1-2.2-3.3-4.9-3.4-8c0-0.1,0-0.2-0.1-0.2c0-0.1,0-0.2,0-0.3c0.1-0.2,0-0.5,0.1-0.7c0.3-5.2,3.7-9.5,8.8-10.9
		c4.4-1.2,8.5-0.4,11.8,3c5.5,5.6,10.8,11.3,16.3,17c2,2.1,4.1,4.2,6,6.4c2.4,2.7,3.5,5.9,3,9.5c-0.6,4.9-3.4,8.3-8,10.1
		c-0.9,0.3-1.8,0.5-2.8,0.6c-0.1,0-0.2,0-0.2,0.1c-0.6,0-1.2,0-1.8,0c-0.1-0.1-0.1-0.1-0.2,0C102.5,125.6,102.3,125.6,102.1,125.6z"
		/>
	<path class="st6" d="M69.9,90c0,0.2,0.1,0.5-0.1,0.7C69.8,90.5,69.8,90.2,69.9,90C69.9,90,69.9,90,69.9,90z"/>
	<path class="st7" d="M102.7,125.6c0.1-0.1,0.1-0.1,0.2,0C102.8,125.6,102.7,125.6,102.7,125.6z"/>
	<path class="st1" d="M113.9,113.4c-0.1,5.1-3.7,9.3-8.5,10c-3.3,0.5-6.2-0.4-8.6-2.7c-3.5-3.5-6.8-7.1-10.3-10.7
		c-0.1-0.1-0.2-0.2,0-0.4c4.7-4.5,9.4-9,14.1-13.5c0.3-0.3,0.4-0.3,0.7,0c3.3,3.6,6.7,7.1,10,10.6
		C113.1,108.7,113.9,111.1,113.9,113.4z"/>
	<path class="st2" d="M82.3,80.6c2.8,0.1,5.2,1.2,7.2,3.2c3.3,3.4,6.5,6.8,9.8,10.2c0.2,0.2,0.2,0.3,0,0.6c-4.7,4.4-9.3,8.9-14,13.3
		c-0.4,0.4-0.4,0.4-0.9,0c-3.2-3.3-6.4-6.7-9.5-10c-2-2.1-3-4.6-2.9-7.5c0.2-4.7,3.4-8.5,8-9.5C80.7,80.7,81.5,80.6,82.3,80.6z"/>
	<path class="st0" d="M79.5,85.3c0,0.4-0.2,0.6-0.5,0.9c-1.1,1.2-1.7,2.5-1.9,4.1c-0.2,1.9,0.3,3.7,1.5,5.2c0.2,0.2,0.4,0.4,0.5,0.7
		c0.2,0.4,0,1-0.4,1.3c-0.4,0.3-0.9,0.2-1.3-0.2c-0.6-0.7-1.2-1.4-1.5-2.3c-1.6-3.6-0.9-7.5,1.8-10.3c0.3-0.3,0.7-0.5,1.1-0.3
		C79.3,84.5,79.6,84.8,79.5,85.3z"/>
</g>
<g>
	<path class="st0" d="M334.7,358.2c-0.5-0.3-1-0.2-1.5-0.4c-2.3-0.6-4.3-1.8-5.9-3.5c-7.2-7.5-14.3-15-21.5-22.6
		c-2.1-2.2-3.3-4.9-3.4-8c0-0.1,0-0.2-0.1-0.2c0-0.1,0-0.2,0-0.3c0.1-0.2,0-0.5,0.1-0.7c0.3-5.2,3.7-9.5,8.8-10.9
		c4.4-1.2,8.5-0.4,11.8,3c5.5,5.6,10.8,11.3,16.3,17c2,2.1,4.1,4.2,6,6.4c2.4,2.7,3.5,5.9,3,9.5c-0.6,4.9-3.4,8.3-8,10.1
		c-0.9,0.3-1.8,0.5-2.8,0.6c-0.1,0-0.2,0-0.2,0.1c-0.6,0-1.2,0-1.8,0c-0.1-0.1-0.1-0.1-0.2,0C335.1,358.2,334.9,358.2,334.7,358.2z"
		/>
	<path class="st6" d="M302.5,322.6c0,0.2,0.1,0.5-0.1,0.7C302.4,323.1,302.5,322.8,302.5,322.6C302.5,322.6,302.5,322.6,302.5,322.6
		z"/>
	<path class="st7" d="M335.3,358.2c0.1-0.1,0.1-0.1,0.2,0C335.4,358.2,335.4,358.2,335.3,358.2z"/>
	<path class="st1" d="M346.5,346c-0.1,5.1-3.7,9.3-8.5,10c-3.3,0.5-6.2-0.4-8.6-2.7c-3.5-3.5-6.8-7.1-10.3-10.7
		c-0.1-0.1-0.2-0.2,0-0.4c4.7-4.5,9.4-9,14.1-13.5c0.3-0.3,0.4-0.3,0.7,0c3.3,3.6,6.7,7.1,10,10.6
		C345.7,341.3,346.5,343.7,346.5,346z"/>
	<path class="st2" d="M314.9,313.2c2.8,0.1,5.2,1.2,7.2,3.2c3.3,3.4,6.5,6.8,9.8,10.2c0.2,0.2,0.2,0.3,0,0.6
		c-4.7,4.4-9.3,8.9-14,13.3c-0.4,0.4-0.4,0.4-0.9,0c-3.2-3.3-6.4-6.7-9.5-10c-2-2.1-3-4.6-2.9-7.5c0.2-4.7,3.4-8.5,8-9.5
		C313.3,313.3,314.1,313.2,314.9,313.2z"/>
	<path class="st0" d="M312.2,317.9c0,0.4-0.2,0.6-0.5,0.9c-1.1,1.2-1.7,2.5-1.9,4.1c-0.2,1.9,0.3,3.7,1.5,5.2
		c0.2,0.2,0.4,0.4,0.5,0.7c0.2,0.4,0,1-0.4,1.3c-0.4,0.3-0.9,0.2-1.3-0.2c-0.6-0.7-1.2-1.4-1.5-2.3c-1.6-3.6-0.9-7.5,1.8-10.3
		c0.3-0.3,0.7-0.5,1.1-0.3C311.9,317.1,312.2,317.4,312.2,317.9z"/>
</g>
<g>
	<path class="st0" d="M69.4,344c0.3-0.5,0.2-1,0.3-1.5c0.6-2.3,1.8-4.3,3.5-5.9c7.5-7.2,14.9-14.5,22.4-21.7c2.2-2.1,4.9-3.3,8-3.5
		c0.1,0,0.2,0,0.2-0.1c0.1,0,0.2,0,0.3,0c0.2,0.1,0.5,0,0.7,0.1c5.2,0.2,9.6,3.6,11,8.7c1.3,4.4,0.4,8.5-2.9,11.8
		c-5.6,5.5-11.2,10.9-16.8,16.4c-2.1,2-4.2,4.1-6.3,6.1c-2.7,2.4-5.9,3.5-9.5,3.1c-4.9-0.6-8.3-3.3-10.2-7.9
		c-0.4-0.9-0.5-1.8-0.6-2.8c0-0.1,0-0.2-0.1-0.2c0-0.6,0-1.2,0-1.8c0.1-0.1,0.1-0.1,0-0.2C69.4,344.4,69.4,344.2,69.4,344z"/>
	<path class="st6" d="M104.7,311.5c-0.2,0-0.5,0.1-0.7-0.1C104.2,311.4,104.5,311.4,104.7,311.5
		C104.7,311.4,104.7,311.5,104.7,311.5z"/>
	<path class="st7" d="M69.4,344.6c0.1,0.1,0.1,0.1,0,0.2C69.4,344.7,69.4,344.6,69.4,344.6z"/>
	<path class="st1" d="M81.7,355.7c-5.1-0.1-9.3-3.7-10.1-8.4c-0.5-3.3,0.3-6.2,2.6-8.6c3.5-3.5,7.1-6.9,10.6-10.4
		c0.1-0.1,0.2-0.2,0.4,0c4.5,4.7,9.1,9.3,13.6,14c0.3,0.3,0.3,0.4,0,0.7c-3.5,3.4-7,6.8-10.5,10.1C86.4,354.9,84,355.6,81.7,355.7z"
		/>
	<path class="st2" d="M114.2,323.8c-0.1,2.8-1.2,5.2-3.2,7.2c-3.4,3.3-6.7,6.6-10.1,9.9c-0.2,0.2-0.3,0.2-0.6,0
		c-4.5-4.6-8.9-9.2-13.4-13.8c-0.4-0.4-0.4-0.4,0-0.9c3.3-3.2,6.6-6.4,9.9-9.6c2.1-2,4.6-3.1,7.5-3c4.7,0.1,8.5,3.3,9.6,7.9
		C114.1,322.2,114.2,323,114.2,323.8z"/>
	<path class="st0" d="M109.5,321.1c-0.4,0-0.6-0.2-0.9-0.5c-1.2-1.1-2.5-1.7-4.1-1.9c-1.9-0.2-3.7,0.3-5.2,1.6
		c-0.2,0.2-0.4,0.4-0.7,0.5c-0.4,0.2-1,0-1.3-0.4c-0.3-0.4-0.2-0.9,0.2-1.3c0.7-0.6,1.4-1.2,2.3-1.6c3.5-1.6,7.5-1,10.3,1.8
		c0.3,0.3,0.5,0.7,0.3,1.1C110.3,320.8,110,321.1,109.5,321.1z"/>
</g>
<g>
	<path class="st0" d="M398.2,228c-0.5,0.2-0.8,0.6-1.3,0.8c-2,1.3-4.2,1.9-6.6,1.9c-10.4,0-20.8,0.1-31.1,0.1c-3.1,0-5.8-1-8.2-3
		c-0.1,0-0.1-0.1-0.2-0.1c-0.1-0.1-0.1-0.1-0.2-0.2c-0.1-0.2-0.4-0.3-0.5-0.6c-3.6-3.8-4.4-9.3-1.9-13.9c2.2-4.1,5.6-6.4,10.2-6.5
		c7.8-0.1,15.7-0.1,23.5-0.1c2.9,0,5.9-0.1,8.8,0c3.6,0.1,6.7,1.5,9,4.3c3.1,3.9,3.7,8.2,1.8,12.8c-0.4,0.9-0.9,1.7-1.5,2.5
		c-0.1,0.1-0.1,0.1-0.1,0.2c-0.4,0.4-0.9,0.9-1.3,1.3c-0.1,0-0.1,0-0.1,0.1C398.4,227.7,398.3,227.9,398.2,228z"/>
	<path class="st6" d="M350.1,226.9c0.2,0.2,0.4,0.3,0.5,0.6C350.4,227.3,350.3,227.2,350.1,226.9C350.1,227,350.1,226.9,350.1,226.9
		z"/>
	<path class="st7" d="M398.5,227.6c0-0.1,0-0.2,0.1-0.1C398.6,227.5,398.6,227.6,398.5,227.6z"/>
	<path class="st1" d="M397.4,211.1c3.6,3.6,4.2,9.1,1.4,13.1c-1.9,2.7-4.5,4.3-7.9,4.4c-4.9,0.1-9.9,0.1-14.8,0.1
		c-0.2,0-0.3,0-0.3-0.3c0-6.5,0-13-0.1-19.5c0-0.4,0.1-0.5,0.5-0.5c4.9,0,9.7,0,14.6,0C393.4,208.4,395.7,209.5,397.4,211.1z"/>
	<path class="st2" d="M351.9,211.5c2-1.9,4.4-2.9,7.3-3c4.7,0,9.4-0.1,14.1-0.1c0.3,0,0.4,0.1,0.4,0.4c0,6.4,0,12.9,0.1,19.3
		c0,0.6,0,0.6-0.6,0.6c-4.6,0-9.2,0-13.8,0.1c-2.9,0-5.4-1-7.5-3c-3.3-3.3-3.8-8.3-1.4-12.4C350.8,212.7,351.3,212.1,351.9,211.5z"
		/>
	<path class="st0" d="M353.3,216.7c0.3,0.2,0.3,0.6,0.3,0.9c0.1,1.6,0.6,3,1.7,4.2c1.3,1.5,2.9,2.3,4.8,2.5c0.3,0,0.6,0,0.9,0.1
		c0.4,0.2,0.7,0.7,0.6,1.2c-0.1,0.5-0.5,0.8-1.1,0.8c-0.9,0-1.8-0.1-2.7-0.4c-3.7-1.3-6.1-4.5-6.2-8.4c0-0.5,0.2-0.8,0.6-1
		C352.6,216.3,353,216.4,353.3,216.7z"/>
</g>
<g>
	<path class="st0" d="M68,228c-0.5,0.2-0.8,0.6-1.3,0.8c-2,1.3-4.2,1.9-6.6,1.9c-10.4,0-20.8,0.1-31.1,0.1c-3.1,0-5.8-1-8.2-3
		c-0.1,0-0.1-0.1-0.2-0.1c-0.1-0.1-0.1-0.1-0.2-0.2c-0.1-0.2-0.4-0.3-0.5-0.6c-3.6-3.8-4.4-9.3-1.9-13.9c2.2-4.1,5.6-6.4,10.2-6.5
		c7.8-0.1,15.7-0.1,23.5-0.1c2.9,0,5.9-0.1,8.8,0c3.6,0.1,6.7,1.5,9,4.3c3.1,3.9,3.7,8.2,1.8,12.8c-0.4,0.9-0.9,1.7-1.5,2.5
		c-0.1,0.1-0.1,0.1-0.1,0.2c-0.4,0.4-0.9,0.9-1.3,1.3c-0.1,0-0.1,0-0.1,0.1C68.3,227.7,68.1,227.8,68,228z"/>
	<path class="st6" d="M20,226.9c0.2,0.2,0.4,0.3,0.5,0.6C20.3,227.3,20.1,227.1,20,226.9C20,226.9,20,226.9,20,226.9z"/>
	<path class="st7" d="M68.4,227.6c0-0.1,0-0.2,0.1-0.1C68.5,227.5,68.4,227.5,68.4,227.6z"/>
	<path class="st1" d="M67.2,211.1c3.6,3.6,4.2,9.1,1.4,13.1c-1.9,2.7-4.5,4.3-7.9,4.4c-4.9,0.1-9.9,0.1-14.8,0.1
		c-0.2,0-0.3,0-0.3-0.3c0-6.5,0-13-0.1-19.5c0-0.4,0.1-0.5,0.5-0.5c4.9,0,9.7,0,14.6,0C63.3,208.4,65.5,209.4,67.2,211.1z"/>
	<path class="st2" d="M21.7,211.5c2-1.9,4.4-2.9,7.3-3c4.7,0,9.4-0.1,14.1-0.1c0.3,0,0.4,0.1,0.4,0.4c0,6.4,0,12.9,0.1,19.3
		c0,0.6,0,0.6-0.6,0.6c-4.6,0-9.2,0-13.8,0.1c-2.9,0-5.4-1-7.5-3c-3.3-3.3-3.8-8.3-1.4-12.4C20.7,212.7,21.1,212.1,21.7,211.5z"/>
	<path class="st0" d="M23.2,216.7c0.3,0.2,0.3,0.6,0.3,0.9c0.1,1.6,0.6,3,1.7,4.2c1.3,1.5,2.9,2.3,4.8,2.5c0.3,0,0.6,0,0.9,0.1
		c0.4,0.2,0.7,0.7,0.6,1.2c-0.1,0.5-0.5,0.8-1.1,0.8c-0.9,0-1.8-0.1-2.7-0.4c-3.7-1.3-6.1-4.5-6.2-8.4c0-0.5,0.2-0.8,0.6-1
		C22.5,216.3,22.9,216.3,23.2,216.7z"/>
</g>
<path class="st7" d="M101.5,9.8c0.1,0,0.2,0,0.1,0.1C101.5,9.9,101.5,9.8,101.5,9.8z"/>
<path class="st8" d="M211.3,90.5c1.5,0,2.7,1,2.7,2.2c0,1.2-1.2,2.2-2.7,2.2c-1.4,0-2.7-1-2.7-2.2C208.6,91.5,209.8,90.5,211.3,90.5
	z"/>
<path class="st9" d="M221.2,77.1c-1.7,0-3.3-1-3.6-2.3c-0.4-1.5,0.4-2.9,2.1-3.5c0.8-0.3,1.3-0.3,1.7,0.5c0.6,1.4,1.1,2.8,2.3,4
	c0.4,0.4,0.1,0.5-0.2,0.8C222.8,76.9,222,77,221.2,77.1z"/>
<path class="st10" d="M209,69c0,0.9-0.5,1.6-1.6,1.9c-0.7,0.2-1.4,0.2-2-0.1c-0.7-0.5,0-0.9,0.1-1.4c0.1-0.3,0.3-0.6,0.5-0.9
	c0.4-0.5,0.3-1.4,1.4-1.2C208.5,67.5,209,68.1,209,69z"/>
<path class="st0" d="M207.1,79.9c0.9,0,1.7,0.7,1.7,1.4c0,0.8-0.9,1.4-1.8,1.4c-0.9,0-1.7-0.7-1.6-1.5
	C205.4,80.5,206.2,79.9,207.1,79.9z"/>
<path class="st11" d="M221.3,83.3c0.9,0,1.5,0.5,1.5,1.2c0,0.7-0.7,1.3-1.5,1.3c-0.8,0-1.5-0.6-1.6-1.3
	C219.7,83.9,220.5,83.3,221.3,83.3z"/>
<path class="st12" d="M233.3,43.5c4.9,1.3,8.2,5.7,7.9,10.6c-0.2,3.3-1.7,6-4.6,7.8c-4.2,2.6-8.5,5.1-12.7,7.6
	c-0.2,0.1-0.3,0.2-0.4-0.1c-3.3-5.6-6.6-11.2-10-16.8c-0.2-0.3-0.2-0.5,0.2-0.7c4.2-2.4,8.4-5,12.6-7.4
	C228.5,43.1,231,42.9,233.3,43.5z"/>
<g>
	<path class="st13" d="M190.3,44.2c2.7-0.9,5.3-0.7,7.8,0.4c4.3,2,8.5,4,12.8,6c0.3,0.1,0.3,0.2,0.2,0.5c-2.8,5.8-5.5,11.6-8.2,17.4
		c-0.3,0.6-0.3,0.6-0.8,0.3c-4.2-2-8.3-3.9-12.5-5.9c-2.6-1.2-4.5-3.2-5.4-6c-1.5-4.4,0.1-9.1,4-11.8
		C188.8,44.8,189.5,44.5,190.3,44.2z"/>
	<path class="st0" d="M190.9,49.1c0.2,0.3,0,0.7-0.1,1c-0.6,1.5-0.7,3-0.3,4.5c0.5,1.9,1.6,3.3,3.3,4.3c0.2,0.1,0.5,0.2,0.7,0.4
		c0.3,0.3,0.3,0.9,0,1.3c-0.3,0.4-0.8,0.5-1.3,0.2c-0.8-0.4-1.6-0.9-2.3-1.6c-2.8-2.7-3.5-6.7-2-10.3c0.2-0.4,0.5-0.7,1-0.7
		C190.4,48.4,190.7,48.6,190.9,49.1z"/>
</g>
</svg>
