<?xml version="1.0" encoding="utf-8"?>
<!-- Generator: Adobe Illustrator 24.2.3, SVG Export Plug-In . SVG Version: 6.00 Build 0)  -->
<svg version="1.1" id="Layer_1" xmlns="http://www.w3.org/2000/svg" xmlns:xlink="http://www.w3.org/1999/xlink" x="0px" y="0px"
	 viewBox="0 0 230.3 230.3" style="enable-background:new 0 0 230.3 230.3;" xml:space="preserve">
<style type="text/css">
	.st0{fill:#4B55C1;}
</style>
<path class="st0" d="M226.9,84.9l-46.1-46.1c-4.5-4.5-11.8-4.5-16.4,0c-4.5,4.5-4.5,11.8,0,16.4L191,81.6H57.6
	c-6.4,0-11.5,5.2-11.5,11.5c0,6.4,5.2,11.5,11.5,11.5h161.2c4.6,0,8.8-2.8,10.6-7.1C231.2,93.2,230.2,88.2,226.9,84.9z M172.7,127.6
	H11.5c-4.6,0-8.8,2.8-10.6,7.1c-1.8,4.3-0.8,9.2,2.4,12.6l46.1,46.1c4.5,4.5,11.8,4.5,16.3,0.1c0,0,0,0,0.1-0.1
	c4.5-4.5,4.5-11.8,0.1-16.3c0,0,0,0-0.1-0.1l-26.5-26.4h133.5c6.4,0,11.5-5.2,11.5-11.5C184.2,132.8,179.1,127.6,172.7,127.6z"/>
</svg>
