<?xml version="1.0" encoding="utf-8"?>
<!-- Generator: Adobe Illustrator 24.2.3, SVG Export Plug-In . SVG Version: 6.00 Build 0)  -->
<svg version="1.1" id="Capa_1" xmlns="http://www.w3.org/2000/svg" xmlns:xlink="http://www.w3.org/1999/xlink" x="0px" y="0px"
	 viewBox="0 0 230.3 230.3" style="enable-background:new 0 0 230.3 230.3;" xml:space="preserve">
<style type="text/css">
	.st0{fill:#4B55C1;}
</style>
<text transform="matrix(1 0 0 1 297.6377 305.9256)" style="font-family:'MyriadPro-Regular'; font-size:12px;">81.23 mm</text>
<g>
	<g>
		<path class="st0" d="M114.8,62.1L33.6,129c0,0.1,0,0.2-0.1,0.4c0,0.2-0.1,0.3-0.1,0.4v67.8c0,2.4,0.9,4.6,2.7,6.4
			c1.8,1.8,3.9,2.7,6.4,2.7h54.2v-54.2h36.2v54.2h54.2c2.4,0,4.6-0.9,6.4-2.7c1.8-1.8,2.7-3.9,2.7-6.4v-67.8c0-0.4-0.1-0.7-0.1-0.8
			L114.8,62.1z"/>
		<path class="st0" d="M227.1,113.8l-30.9-25.7V30.5c0-1.3-0.4-2.4-1.3-3.2c-0.8-0.8-1.9-1.3-3.2-1.3h-27.1c-1.3,0-2.4,0.4-3.2,1.3
			c-0.8,0.8-1.3,1.9-1.3,3.2V58l-34.5-28.8c-3-2.4-6.6-3.7-10.7-3.7c-4.1,0-7.7,1.2-10.7,3.7L2.6,113.8c-0.9,0.8-1.5,1.8-1.6,3
			c-0.1,1.3,0.2,2.4,1,3.3l8.8,10.5c0.8,0.8,1.7,1.4,3,1.6c1.1,0.1,2.3-0.2,3.4-1l97.7-81.5l97.7,81.5c0.8,0.7,1.7,1,3,1h0.4
			c1.2-0.2,2.2-0.7,3-1.6l8.8-10.4c0.8-0.9,1.1-2.1,1-3.3C228.6,115.5,228,114.5,227.1,113.8z"/>
	</g>
</g>
</svg>
