<?xml version="1.0" encoding="utf-8"?>
<!-- Generator: Adobe Illustrator 24.2.3, SVG Export Plug-In . SVG Version: 6.00 Build 0)  -->
<svg version="1.1" id="Layer_1" xmlns="http://www.w3.org/2000/svg" xmlns:xlink="http://www.w3.org/1999/xlink" x="0px" y="0px"
	 viewBox="0 0 230.3 230.3" style="enable-background:new 0 0 230.3 230.3;" xml:space="preserve">
<style type="text/css">
	.st0{fill:none;}
	.st1{fill:#FFFFFF;}
	.st2{fill:#4B55C1;}
</style>
<path class="st0" d="M155,87c-0.5,2.4-2.1,4.4-4.3,5.3C152.9,91.3,154.6,89.4,155,87z"/>
<path class="st0" d="M166.7,67.6v17.9c0,9.4-6.9,17.2-16,18.6c-0.3,0-0.6,0.1-0.9,0.1c-0.3,0-0.6,0-0.9,0.1c-0.3,0-0.7,0-1,0
	c-0.3,0-0.6,0-0.9,0c-10-0.5-17.9-8.7-17.9-18.8V67.6h11v17.9c0,0.5,0,1,0.1,1.5c0.5,2.3,2.1,4.3,4.3,5.3c0.5,0.2,1.1,0.4,1.6,0.5
	c0.5,0.2,1,0.2,1.5,0.2c0,0,0.1,0,0.1,0c0,0,0,0,0,0c0,0,0.1,0,0.1,0c0.5,0,1,0,1.5-0.2c0.5-0.1,1.1-0.3,1.6-0.5
	c2.2-1,3.8-2.9,4.3-5.3c0.1-0.5,0.2-1,0.2-1.5V67.6H166.7z"/>
<path class="st1" d="M146.3,92.8c0.5,0.1,0.9,0.2,1.4,0.2c0,0,0,0-0.1,0c-0.5,0-1,0-1.5-0.2c-0.5-0.1-1.1-0.3-1.6-0.5
	c-2.2-1-3.8-3-4.3-5.3c-0.1-0.5-0.1-1-0.1-1.5V67.6h0.2v17.9c0,0.5,0,1,0.1,1.5c0.5,2.4,2.1,4.4,4.3,5.3
	C145.2,92.5,145.7,92.7,146.3,92.8z"/>
<path class="st1" d="M166.8,67.6v17.9c0,9.5-7,17.3-16.1,18.6c9.1-1.4,16-9.2,16-18.6L166.8,67.6L166.8,67.6z"/>
<path class="st2" d="M201.9,217.7c0,4.2-3.4,7.5-7.5,7.5H36c-2.1,0-4.1-0.9-5.5-2.4c-1.4-1.6-2.1-3.6-1.9-5.7L41.3,74.5
	c0.3-3.9,3.6-6.8,7.5-6.8h15v17.8c0,1.3,0.1,2.6,0.4,3.8c0.1,0.5,0.2,0.9,0.3,1.4c1.7,6,6.4,10.8,12.3,12.7c0.7,0.2,1.4,0.4,2,0.5
	c1.2,0.2,2.5,0.4,3.8,0.4c10.4,0,18.8-8.4,18.8-18.8V67.6H129v17.9c0,10.1,7.9,18.3,18,18.8c0.3,0,0.6,0,0.9,0c0.3,0,0.6,0,1,0
	c0.3,0,0.6,0,0.9-0.1c0.3,0,0.6-0.1,0.9-0.1c9.1-1.4,16-9.2,16-18.6V67.6h14.8c3.9,0,7.1,3,7.5,6.8l12.7,142
	C201.8,216.8,201.9,217.2,201.9,217.7z"/>
<path class="st2" d="M155.2,45.2v40.3c0,0.5,0,1-0.2,1.5c-0.1,0.3-0.1,0.6-0.2,0.9c-0.1,0.4-0.3,0.8-0.5,1.2
	c-0.4,0.6-0.8,1.2-1.3,1.7c-0.6,0.6-1.4,1.1-2.2,1.5c-0.5,0.2-1,0.4-1.6,0.5c-0.5,0.1-0.9,0.2-1.4,0.2c0,0,0,0,0,0c0,0,0,0-0.1,0
	c-0.5,0-1,0-1.5-0.2c-0.5-0.1-1.1-0.3-1.6-0.5c-2.2-1-3.8-3-4.3-5.3c-0.1-0.5-0.1-1-0.1-1.5V45.2c0-13.8-11.2-25-25-25
	c-13.8,0-25,11.2-25,25v40.3c0,4.2-3.3,7.5-7.4,7.5h-0.1c-0.3,0-0.5,0-0.8,0c-0.2,0-0.5-0.1-0.7-0.1c-0.2,0-0.5-0.1-0.7-0.2
	c-3.1-0.9-5.3-3.8-5.3-7.2V45.2c0-22.1,18-40.1,40.1-40.1C137.3,5.1,155.2,23.1,155.2,45.2z"/>
<path class="st2" d="M155,87c-0.5,2.4-2.1,4.4-4.3,5.3C152.9,91.3,154.6,89.4,155,87z"/>
<path class="st0" d="M101.5,67.6v17.9c0,10.4-8.4,18.8-18.8,18.8c-1.3,0-2.6-0.1-3.8-0.4c-7.4-1.5-13.2-7.3-14.7-14.6
	c-0.2-1.2-0.4-2.5-0.4-3.8V67.7h11.3v17.8c0,3.9,2.9,7.1,6.7,7.5c0.3,0,0.5,0,0.8,0h0.1c4.1,0,7.5-3.3,7.5-7.5V67.6H101.5z"/>
<path class="st1" d="M81.8,93c-3.8-0.3-6.7-3.6-6.7-7.5V67.7h0.1v17.8C75.2,89.3,78,92.6,81.8,93z"/>
<g id="Layer_2_1_">
</g>
<g id="Layer_3">
</g>
</svg>
