<?xml version="1.0" encoding="utf-8"?>
<!-- Generator: Adobe Illustrator 24.2.3, SVG Export Plug-In . SVG Version: 6.00 Build 0)  -->
<svg version="1.1" xmlns="http://www.w3.org/2000/svg" xmlns:xlink="http://www.w3.org/1999/xlink" x="0px" y="0px"
	 viewBox="0 0 230.3 230.3" style="enable-background:new 0 0 230.3 230.3;" xml:space="preserve">
<style type="text/css">
	.st0{fill:#FFFFFF;}
	.st1{fill:none;}
</style>
<g id="Capa_1">
	<path class="st0" d="M155,87c-0.5,2.4-2.1,4.4-4.3,5.3C152.9,91.3,154.6,89.4,155,87z"/>
	<path class="st1" d="M166.8,67.6v17.9c0,10.4-8.4,18.8-18.8,18.8c-10.4,0-18.9-8.4-18.9-18.8V67.6h11.2v17.9c0,0.5,0,1,0.1,1.5
		c0.5,2.4,2.1,4.4,4.3,5.3c0.5,0.2,1,0.4,1.6,0.5c0.5,0.1,1,0.2,1.5,0.2s1,0,1.5-0.2c0.5-0.1,1.1-0.3,1.6-0.5c2.2-1,3.8-2.9,4.3-5.3
		c0.1-0.5,0.2-1,0.2-1.5V67.6H166.8z"/>
	<path class="st0" d="M201.9,217.7c0,4.2-3.4,7.5-7.5,7.5H36c-2.1,0-4.1-0.9-5.5-2.4c-1.4-1.6-2.1-3.6-1.9-5.7L41.3,74.5
		c0.3-3.9,3.6-6.8,7.5-6.8h15v17.8c0,10.4,8.4,18.8,18.9,18.8c10.4,0,18.8-8.4,18.8-18.8V67.6H129v17.9c0,10.4,8.4,18.8,18.9,18.8
		c10.4,0,18.8-8.4,18.8-18.8V67.6h14.8c3.9,0,7.1,3,7.5,6.8l12.7,142C201.8,216.8,201.9,217.2,201.9,217.7z"/>
	<path class="st0" d="M155.2,45.2v40.3c0,0.5,0,1-0.2,1.5c-0.5,2.4-2.1,4.3-4.3,5.3c-0.5,0.2-1,0.4-1.6,0.5c-0.5,0.1-1,0.2-1.5,0.2
		s-1,0-1.5-0.2c-0.5-0.1-1.1-0.3-1.6-0.5c-2.2-1-3.8-3-4.3-5.3c-0.1-0.5-0.1-1-0.1-1.5V45.2c0-13.8-11.2-25-25-25s-25,11.2-25,25
		v40.3c0,4.2-3.4,7.5-7.5,7.5c0,0-0.1,0-0.1,0c-4.1,0-7.4-3.4-7.4-7.5V45.2c0-22.1,18-40.1,40.1-40.1
		C137.3,5.1,155.2,23.1,155.2,45.2z"/>
	<path class="st1" d="M101.5,67.6v17.9c0,10.4-8.4,18.8-18.8,18.8c-10.4,0-18.9-8.4-18.9-18.8V67.7l11.4,0v17.8
		c0,4.1,3.2,7.5,7.4,7.5c0,0,0.1,0,0.1,0c4.1,0,7.5-3.3,7.5-7.5V67.6L101.5,67.6z"/>
</g>
<g id="Layer_2">
</g>
<g id="Layer_3">
</g>
</svg>
