<?xml version="1.0" encoding="utf-8"?>
<!-- Generator: Adobe Illustrator 24.2.3, SVG Export Plug-In . SVG Version: 6.00 Build 0)  -->
<svg version="1.1" id="Layer_1" xmlns="http://www.w3.org/2000/svg" xmlns:xlink="http://www.w3.org/1999/xlink" x="0px" y="0px"
	 viewBox="0 0 285.1 285.1" style="enable-background:new 0 0 285.1 285.1;" xml:space="preserve">
<style type="text/css">
	.st0{fill:#F8C1C1;}
	.st1{fill:#BDC0ED;}
	.st2{fill:#F9D2A0;}
	.st3{fill:#262647;}
	.st4{fill:#F95353;}
	.st5{fill:#F2BB8E;}
	.st6{fill:#F4BC8F;}
	.st7{fill:#FDFDFE;}
	.st8{fill:#F6BD8F;}
	.st9{fill:#F3B28E;}
	.st10{fill:#282748;}
	.st11{fill:#282747;}
	.st12{fill:#A1857C;}
</style>
<g>
	<path class="st0" d="M137.3,6c3.4,0,6.7,0,10.1,0c0.3,0.2,0.6,0.2,0.9,0.2c2.3,0,4.6,0.3,6.9,0.4c6.8,0.5,13.4,1.7,20,3.3
		c12.4,3,24.2,7.8,35.3,14.1c10.1,5.8,19.4,12.8,27.7,21c4.2,4.1,8.1,8.5,11.7,13.1c7.8,9.9,14.1,20.7,18.9,32.4
		c3.3,8.1,5.8,16.5,7.6,25.2c1.3,6.5,2.2,13,2.4,19.6c0.2,7.1,0.2,14.3-0.6,21.4c-0.7,6.4-1.8,12.7-3.3,18.9
		c-3,12-7.6,23.5-13.7,34.3c-5.7,10-12.6,19.2-20.6,27.5c-3.3,3.4-6.8,6.7-10.4,9.7c-3.6,3-7.2,5.8-11.1,8.3c0-0.5-0.2-0.9-0.4-1.4
		c-3.5-8.6-8.6-16.1-15.1-22.7c-10.4-10.6-22.9-17.8-37.2-21.8c0.1-0.4,0.5-0.5,0.8-0.6c2.4-1.1,4.6-2.5,6.8-4c4.3-3,8-6.7,11-11
		c3.1-4.5,5.6-9.3,7.1-14.6c1.5-5.1,1.8-10.3,1.6-15.6c0.7,0,1.4-0.1,2.1-0.2c10.2-1.6,13.3-13.4,8.3-20.1c-0.6-0.8-1.6-1.3-1.8-2.3
		c0-0.4,0-0.9,0-1.3c0-8,0-16.1,0-24.1c-0.1-10.3-3.2-19.6-9.6-27.8c-4.3-5.6-9.5-10.2-15.2-14.4c-0.6-0.5-0.9-0.9-0.6-1.7
		c0.6-1.9,0.9-4,1.2-6c0.4-2.7,0.3-5.2-0.9-7.7c-0.4-0.8-0.7-1-1.6-0.8c-4.5,1.3-9,1.9-13.7,1.9c-5.8,0-11.5-1-17.2-1.7
		c-7.1-0.8-14-0.6-20.9,1.5c-10.9,3.3-20.1,9.4-28,17.6c-8.5,8.9-12.8,19.5-13,31.7c-0.2,10.9-0.1,21.7-0.1,32.6
		c0,0.2,0,0.3,0.1,0.5c-0.9,0.8-1.8,1.6-2.4,2.6c-2.6,4.2-2.7,8.7-0.5,13c2.3,4.5,6.2,6.5,11.2,6.7c0.1,2.3,0,4.7,0.2,7
		c0.4,5,1.6,9.8,3.7,14.4c4.4,9.7,11.3,17,20.4,22.5c1,0.6,2.2,0.8,2.9,1.8c-3.3,1.1-6.5,2.1-9.7,3.4c-16,6.8-28.9,17.3-37.9,32.3
		c-1.9,3.2-3.4,6.6-4.9,10c-0.3-0.2-0.6-0.3-0.9-0.5c-8.9-6.2-16.9-13.2-24.1-21.3c-4-4.5-7.8-9.2-11.2-14.2
		c-5-7.4-9.3-15.2-12.8-23.4c-2.9-6.7-5.2-13.6-6.9-20.7c-1.7-7.2-3-14.5-3.5-21.9c-0.1-1.4,0.1-2.8-0.4-4.1c0-4.4,0-8.8,0-13.2
		c0.2-0.2,0.2-0.5,0.2-0.8c0-3.1,0.4-6.1,0.7-9.2c0.7-6,1.8-11.8,3.3-17.6c2.9-11.2,7.1-21.9,12.7-32c6-10.9,13.4-20.6,22-29.5
		c3.2-3.3,6.7-6.4,10.2-9.4c7.2-6,14.9-11.2,23.2-15.6c10.3-5.5,21.2-9.6,32.6-12.2c8.3-1.9,16.8-3.2,25.3-3.5
		C136.6,6.2,137,6.3,137.3,6z"/>
	<path class="st1" d="M136.1,279.1c0-0.1,0-0.1,0-0.2c4.2,0,8.5,0,12.7,0c0,0.1,0,0.1,0,0.2C144.6,279.1,140.3,279.1,136.1,279.1z"
		/>
	<path class="st2" d="M193.7,163.9c0.2,5.3-0.2,10.5-1.6,15.6c-1.5,5.3-3.9,10.1-7.1,14.6c-3,4.3-6.7,8-11,11
		c-2.1,1.5-4.4,2.9-6.8,4c-0.3,0.1-0.7,0.3-0.8,0.6c0,0,0,0,0,0c-2.3,0.6-4.3,1.8-6.5,2.9c-0.5,0.1-0.9,0.1-1.4,0.3
		c-4.6,1.3-9.4,2.1-14.2,2.1c-2.4,0-4.8,0-7.3-0.2c-4.1-0.4-8.1-1.2-12-2.4c-1.4-0.4-2.7-1.2-4-1.8c-0.8-0.3-1.5-0.9-2.4-0.9
		c-0.1,0-0.2,0-0.3,0c-0.7-1-1.9-1.2-2.9-1.8c-9-5.5-16-12.9-20.4-22.5c-2.1-4.6-3.3-9.4-3.7-14.4c-0.2-2.4-0.1-4.7-0.2-7
		c0-5.7,0-11.4,0-17.1c0.4-2.9,0.2-5.8,0.1-8.6c0-5.8,0-11.5,0-17.3c0.1,0,0.2,0,0.4,0.1c0.5,0.5,1,1,1.5,1.5
		c8.8,7.8,19.3,11.6,30.9,12.4c8.9,0.6,17.3-1.5,25.1-5.6c9.5-5.1,16.8-12.3,21-22.3c0.5-1.1,0.8-0.6,1.3-0.2
		c7.1,5.5,14.2,11,21.3,16.5c0.6,0.4,0.8,0.9,0.8,1.6c0,4.5,0,9,0,13.4c-0.4,0.4-0.2,0.9-0.2,1.4c-0.1,5.9,0.4,11.8,0.2,17.7
		C193.6,159.5,193.7,161.7,193.7,163.9z M143.6,195.9c1.2,0.1,3.4-0.5,5.6-1.3c4-1.5,7.1-4,9.5-7.5c0.9-1.2,0.7-2.9-0.3-3.5
		c-1.1-0.7-2.7-0.1-3.5,1.1c-0.9,1.6-2.1,3-3.6,4.1c-5.7,4.4-13.2,4.2-18.5-0.6c-1.3-1.2-2.3-2.6-3.3-4c-0.6-0.8-1.5-1.1-2.5-0.8
		c-0.8,0.3-1.3,0.9-1.4,1.7c-0.1,0.8,0.2,1.5,0.7,2.1C130.3,192.6,135.6,195.7,143.6,195.9z M119.1,142.5c-3.4,0-6.4,2.9-6.5,6.4
		c0,3.4,2.9,6.4,6.4,6.5c3.4,0.1,6.4-3,6.5-6.4C125.5,145.6,122.5,142.5,119.1,142.5z M166,142.5c-3.4,0-6.5,2.9-6.5,6.4
		c0,3.4,3,6.4,6.4,6.5c3.4,0.1,6.4-3,6.5-6.4C172.4,145.5,169.4,142.5,166,142.5z M142.6,172.3c-1.1,0-2.2,0-3.2,0
		c-1.2,0-1.3,0.3-1.1,1.4c0.5,2.1,2.1,3.1,4.7,3c1.9-0.1,3.5-1.7,3.7-3.6c0.1-0.6-0.2-0.7-0.7-0.7
		C145,172.3,143.8,172.3,142.6,172.3z"/>
	<path class="st3" d="M91.3,120.9c0,5.8,0,11.5,0,17.3c-0.1,0-0.1,0-0.1,0.1c-3.2,0.1-5.9,1.3-8.4,3.4c0-0.2-0.1-0.3-0.1-0.5
		c0-10.9-0.1-21.8,0.1-32.6c0.2-12.2,4.5-22.8,13-31.7c7.9-8.2,17-14.3,28-17.6c6.9-2.1,13.8-2.3,20.9-1.5
		c5.7,0.7,11.4,1.7,17.2,1.7c4.7,0,9.2-0.6,13.7-1.9c0.9-0.3,1.3,0,1.6,0.8c1.1,2.5,1.3,5.1,0.9,7.7c-0.3,2-0.6,4-1.2,6
		c-0.2,0.8,0,1.2,0.6,1.7c5.6,4.2,10.9,8.8,15.2,14.4c6.3,8.2,9.5,17.5,9.6,27.8c0.1,8,0,16.1,0,24.1c0,0.4,0,0.9,0,1.3
		c-0.2,0.1-0.4,0-0.5-0.1c-2.3-2-5-2.9-8.1-2.9c0-4.5,0-9,0-13.4c0-0.7-0.2-1.2-0.8-1.6c-7.1-5.5-14.2-11-21.3-16.5
		c-0.5-0.4-0.9-0.9-1.3,0.2c-4.2,10.1-11.5,17.3-21,22.3c-7.9,4.2-16.3,6.2-25.1,5.6c-11.6-0.8-22-4.6-30.9-12.4
		c-0.5-0.5-1-1-1.5-1.5c-0.1-0.1-0.2-0.2-0.2-0.2c-0.1,0-0.1,0-0.2-0.1C91.3,120.7,91.3,120.8,91.3,120.9L91.3,120.9z"/>
	<path class="st4" d="M118.3,209.7c0.1,0,0.2,0,0.3,0c-0.1,0.4-0.2,0.8-0.4,1.3c-1.4,4.2-1.8,8.5-1,12.8c2.7,14.2,15.4,23,29.7,20.8
		c11.4-1.8,20.6-12.2,21.1-23.6c0.2-3.8-0.4-7.6-1.7-11.2c0,0,0,0,0,0c14.3,4,26.7,11.2,37.2,21.8c6.5,6.6,11.5,14.1,15.1,22.7
		c0.2,0.4,0.5,0.8,0.4,1.4c-4.5,3.2-9.2,5.9-14.1,8.4c-13.3,6.9-27.5,11.4-42.3,13.6c-4.6,0.7-9.2,1.1-13.8,1.3c-4.2,0-8.5,0-12.7,0
		c-25.3-1.2-48.5-8.9-69.6-22.9c-0.3-0.2-0.5-0.4-0.7-0.6c1.5-3.4,3-6.8,4.9-10c9-15,21.9-25.5,37.9-32.3
		C111.8,211.8,115.1,210.8,118.3,209.7z"/>
	<path class="st5" d="M193.7,138.2c3,0.1,5.8,0.9,8.1,2.9c0.2,0.1,0.3,0.2,0.5,0.1c0.3,1,1.2,1.5,1.8,2.3c5.1,6.7,2,18.5-8.3,20.1
		c-0.7,0.1-1.4,0.2-2.1,0.2c0-2.2-0.1-4.4,0-6.6c0.2-5.9-0.3-11.8-0.2-17.7C193.4,139.1,193.3,138.6,193.7,138.2z"/>
	<path class="st6" d="M82.8,141.6c2.4-2,5.2-3.2,8.4-3.4c0,2.9,0,5.7,0,8.6c0,5.7,0,11.4,0,17.1c-5-0.2-8.9-2.2-11.2-6.7
		c-2.2-4.3-2.1-8.8,0.5-13C81.1,143.2,81.9,142.3,82.8,141.6z"/>
	<path class="st7" d="M166.3,209.7c1.3,3.6,1.9,7.3,1.7,11.2c-0.5,11.5-9.7,21.8-21.1,23.6c-14.3,2.3-27-6.6-29.7-20.8
		c-0.8-4.3-0.4-8.6,1-12.8c0.1-0.4,0.3-0.8,0.4-1.3c0.9,0,1.6,0.6,2.4,0.9c1.3,0.6,2.6,1.3,4,1.8c0,2.3,0,4.6,0,7
		c0,0.9,0.1,1.8,0.3,2.7c1.7,8,8.3,13.8,16,14.3c8.8,0.5,16.5-5.3,18.3-14c0.7-3.2,0.3-6.5,0.3-9.8C162,211.6,164,210.3,166.3,209.7
		z"/>
	<path class="st8" d="M159.9,212.6c0,3.3,0.4,6.6-0.3,9.8c-1.8,8.7-9.5,14.5-18.3,14c-7.7-0.4-14.2-6.3-16-14.3
		c-0.2-0.9-0.3-1.8-0.3-2.7c0-2.3,0-4.6,0-7c3.9,1.3,7.9,2.1,12,2.4c2.4,0.2,4.9,0.2,7.3,0.2c4.8,0,9.6-0.8,14.2-2.1
		C158.9,212.7,159.4,212.7,159.9,212.6z"/>
	<path class="st9" d="M143.6,195.9c-8.1-0.2-13.4-3.3-17.4-8.7c-0.5-0.6-0.8-1.3-0.7-2.1c0.1-0.9,0.6-1.5,1.4-1.7
		c1-0.3,1.9,0,2.5,0.8c1,1.4,2,2.9,3.3,4c5.3,4.8,12.8,5.1,18.5,0.6c1.5-1.1,2.6-2.5,3.6-4.1c0.8-1.3,2.4-1.8,3.5-1.1
		c1,0.6,1.2,2.3,0.3,3.5c-2.4,3.5-5.5,6-9.5,7.5C147,195.4,144.8,196,143.6,195.9z"/>
	<path class="st10" d="M119.1,142.5c3.4,0,6.5,3.1,6.4,6.5c-0.1,3.4-3.1,6.4-6.5,6.4c-3.5-0.1-6.4-3.1-6.4-6.5
		C112.6,145.4,115.6,142.5,119.1,142.5z"/>
	<path class="st11" d="M166,142.5c3.5,0,6.4,3,6.4,6.5c0,3.4-3.1,6.5-6.5,6.4c-3.5-0.1-6.4-3.1-6.4-6.5
		C159.5,145.5,162.5,142.5,166,142.5z"/>
	<path class="st8" d="M142.6,172.3c1.2,0,2.3,0,3.5,0c0.5,0,0.7,0.1,0.7,0.7c-0.2,1.9-1.9,3.5-3.7,3.6c-2.6,0.2-4.2-0.9-4.7-3
		c-0.3-1.1-0.1-1.3,1.1-1.4C140.5,172.3,141.6,172.3,142.6,172.3z"/>
	<path class="st12" d="M91.2,146.8c0-2.9,0-5.7,0-8.6c0-0.1,0-0.1,0.1-0.1C91.4,141,91.6,143.9,91.2,146.8z"/>
	<path class="st12" d="M91.5,120.7c0.1,0.1,0.2,0.2,0.2,0.2c-0.1,0-0.2,0-0.4-0.1c0,0,0-0.1,0-0.1C91.4,120.8,91.4,120.7,91.5,120.7
		z"/>
	<path class="st12" d="M91.3,120.8c0-0.1,0-0.1,0-0.2c0.1,0,0.1,0,0.2,0.1C91.4,120.7,91.4,120.8,91.3,120.8z"/>
</g>
</svg>
