<?xml version="1.0" encoding="utf-8"?>
<!-- Generator: Adobe Illustrator 24.2.3, SVG Export Plug-In . SVG Version: 6.00 Build 0)  -->
<svg version="1.1" id="Layer_1" xmlns="http://www.w3.org/2000/svg" xmlns:xlink="http://www.w3.org/1999/xlink" x="0px" y="0px"
	 viewBox="0 0 230.3 230.3" style="enable-background:new 0 0 230.3 230.3;" xml:space="preserve">
<style type="text/css">
	.st0{fill:#4B55C1;}
</style>
<g id="about">
	<path class="st0" d="M117.7,8.2C88,8.2,63.9,32.3,63.9,62c0,29.7,24.1,53.8,53.8,53.8s53.8-24.1,53.8-53.8
		C171.4,32.3,147.4,8.2,117.7,8.2z M117.7,100.4c-21.2,0-38.4-17.2-38.4-38.4c0-21.2,17.2-38.4,38.4-38.4
		c21.2,0,38.4,17.2,38.4,38.4C156.1,83.2,138.9,100.4,117.7,100.4z"/>
	<path class="st0" d="M156.1,62c0,21.2-17.2,38.4-38.4,38.4c-21.2,0-38.4-17.2-38.4-38.4c0-21.2,17.2-38.4,38.4-38.4
		C138.9,23.6,156.1,40.8,156.1,62z"/>
	<path class="st0" d="M125.4,131.1H110c-46.6,0-84.5,37.8-84.5,84.5c0,4.2,3.4,7.7,7.7,7.7h169c4.2,0,7.7-3.4,7.7-7.7
		C209.8,168.9,172,131.1,125.4,131.1z M41.3,207.9c3.9-35,33.5-61.4,68.7-61.4h15.4c35.2,0,64.7,26.5,68.7,61.4H41.3z"/>
	<path class="st0" d="M194,207.9H41.3c3.9-35,33.5-61.4,68.7-61.4h15.4C160.5,146.5,190.1,172.9,194,207.9z"/>
</g>
</svg>
