<?xml version="1.0" encoding="utf-8"?>
<!-- Generator: Adobe Illustrator 24.2.3, SVG Export Plug-In . SVG Version: 6.00 Build 0)  -->
<svg version="1.1" id="fd59ce54-f850-4dfc-bc34-dd7d379d600e"
	 xmlns="http://www.w3.org/2000/svg" xmlns:xlink="http://www.w3.org/1999/xlink" x="0px" y="0px" viewBox="0 0 1074.4 584.2"
	 style="enable-background:new 0 0 1074.4 584.2;" xml:space="preserve">
<style type="text/css">
	.st0{fill:#F2F2F2;}
	.st1{fill:#707487;}
	.st2{fill:#52586D;}
	.st3{fill:#F0A479;}
	.st4{fill:#E5966E;}
	.st5{fill:#D665D3;}
	.st6{fill:#C64AC6;}
	.st7{fill:#D8DCE5;}
	.st8{fill:#C3C8D1;}
	.st9{fill:#00AAF0;}
	.st10{fill:#E4EAF8;}
	.st11{fill:#434A5E;}
	.st12{fill:#F7B594;}
	.st13{display:none;fill:#F0A479;}
	.st14{fill:#2F2E41;}
	.st15{fill:#6C63FF;}
	.st16{fill:none;stroke:#3F3D56;stroke-miterlimit:10;}
	.st17{fill:#57B894;}
</style>
<ellipse class="st0" cx="540.6" cy="549.3" rx="527.5" ry="34.9"/>
<path class="st1" d="M523.3,267.8c-22,0-39.8,17.5-39.8,39.2v55.2c0,2.9,2.4,5.2,5.3,5.2h69.1c2.9,0,5.3-2.3,5.3-5.2
	c0-1.4,0-53.9,0-55.2C563.1,285.4,545.3,267.8,523.3,267.8z"/>
<path class="st2" d="M497.2,362.2c0-0.6,0-54.7,0-55.2c0-19.3,14.2-35.4,33-38.6c-2.2-0.4-4.5-0.6-6.8-0.6
	c-22,0-39.8,17.5-39.8,39.2v55.2c0,2.9,2.4,5.2,5.3,5.2h13.7C499.5,367.4,497.2,365.1,497.2,362.2z"/>
<path class="st3" d="M503,490.8h40V376.1l-0.7-0.3c-1.7-0.6-2.8-2.3-2.8-4v-11.4c-10.2,6.9-23.3,6.2-32.6,0.4v10.9
	c0,1.8-1.1,3.4-2.8,4l-1,0.4V490.8z"/>
<path class="st4" d="M520.5,365.3c-4.9-0.4-9.6-1.9-13.6-4.5v10.9c0,1.8-1.1,3.4-2.8,4l-1,0.4v114.6h17.5V365.3z"/>
<path class="st5" d="M543,386.7l-0.1,0.2c-9.9,11.7-30,11.6-39.8-0.2v104.1h40V386.7z"/>
<path class="st6" d="M520.5,395.5c-6.7-0.6-13.1-3.5-17.5-8.8v104.1h17.5V395.5z"/>
<path class="st7" d="M503.9,375.9l-40.1,15.3c0,0-15.9,6.4-15.9,24.3V454v31.6c0,2.9,2.4,5.2,5.3,5.2h50.7L503.9,375.9L503.9,375.9z
	"/>
<path class="st8" d="M461.6,485.5V454c0-14.6,0-39,0-47.5c0-7.5,2.8-12.9,6-16.8l-3.8,1.4c0,0-15.9,6.4-15.9,24.3V454v31.6
	c0,2.9,2.4,5.2,5.3,5.2h13.7C464,490.8,461.6,488.4,461.6,485.5z"/>
<path class="st7" d="M582.5,391.1l-40.3-15.3c-0.1,0-0.1-0.1-0.2-0.1v115h51.1c2.9,0,5.3-2.3,5.3-5.2v-70.1
	C598.5,397.6,582.5,391.1,582.5,391.1z"/>
<path class="st1" d="M558.6,485.1c-1.9,0-3.4-1.5-3.4-3.4c0-1.9,1.5-3.4,3.4-3.4c1.6,0,3-1.1,3-2.3v-24.9c0-1.3-1.4-2.3-3-2.3h-10.2
	c-1.6,0-3,1.1-3,2.3v24.9c0,1.3,1.4,2.3,3,2.3c1.9,0,3.4,1.5,3.4,3.4c0,1.9-1.5,3.4-3.4,3.4c-5.4,0-9.8-4.1-9.8-9v-24.9
	c0-5,4.4-9,9.8-9h10.2c5.4,0,9.8,4.1,9.8,9v24.9C568.4,481.1,564,485.1,558.6,485.1z"/>
<path class="st9" d="M553.5,448.9c-1.9,0-3.4-1.5-3.4-3.4v-22.2c0-1.9,1.5-3.4,3.4-3.4c1.9,0,3.4,1.5,3.4,3.4v22.2
	C557,447.4,555.4,448.9,553.5,448.9z"/>
<path class="st9" d="M492.8,455c-1.9,0-3.4-1.5-3.4-3.4v-28.3c0-1.9,1.5-3.4,3.4-3.4c1.9,0,3.4,1.5,3.4,3.4v28.3
	C496.2,453.5,494.7,455,492.8,455z"/>
<path class="st8" d="M580.3,490.8v-64.1c0-1.9-1.5-3.4-3.4-3.4c-1.9,0-3.4,1.5-3.4,3.4v64.1H580.3z"/>
<path class="st8" d="M473,490.8v-64.1c0-1.9-1.5-3.4-3.4-3.4c-1.9,0-3.4,1.5-3.4,3.4v64.1H473z"/>
<path class="st10" d="M560.2,415.9l-6.2-4.7c-1.5-1.1-1.6-3.1-0.2-4.4l10.9-9.9c1.1-1,1.3-2.4,0.5-3.6l-7.9-11.9l-14.9-5.7
	c-0.1,0-0.1-0.1-0.2-0.1v67.5l18.6-23.3C561.7,418.6,561.5,416.9,560.2,415.9z"/>
<path class="st10" d="M480.9,393.4c-0.8,1.2-0.6,2.7,0.5,3.6l10.9,9.9c1.4,1.2,1.2,3.2-0.2,4.4l-6.2,4.7c-1.3,1-1.6,2.7-0.6,4
	l18.6,23.3v-67.4l-15.2,5.8L480.9,393.4z"/>
<path class="st1" d="M492.8,470c-6.1,0-11-4.9-11-10.9c0-6,5-10.9,11-10.9c6.1,0,11,4.9,11,10.9C503.9,465.1,498.9,470,492.8,470z"
	/>
<path class="st2" d="M492,459.1c0-4.2,2.4-7.8,6-9.6c-1.5-0.8-3.3-1.2-5.1-1.2c-6.1,0-11,4.9-11,10.9c0,6,5,10.9,11,10.9
	c1.8,0,3.6-0.4,5.1-1.2C494.4,467,492,463.3,492,459.1z"/>
<path class="st11" d="M492.8,455c-2.3,0-4.2,1.9-4.2,4.1c0,2.3,1.9,4.1,4.2,4.1c2.3,0,4.2-1.9,4.2-4.1
	C497,456.9,495.1,455,492.8,455z"/>
<path class="st3" d="M551.7,318.5v21c0,0.3,0,0.5,0,0.8c7.1,0.7,13.8-4.4,13.8-10.9C565.6,322.9,558.9,317.7,551.7,318.5z"/>
<path class="st4" d="M563.1,335.7c0-4.4,0-8.8,0-12.8c-2.6-3.1-6.9-4.9-11.4-4.5v21c0,0.3,0,0.5,0,0.8
	C556.2,340.6,560.5,338.8,563.1,335.7z"/>
<path class="st12" d="M550.3,313.3c-3.5-1.1-10.5-3.8-17.2-10.6c-1.1-1.1-2.9-1-3.9,0.1c-4.7,5.3-17.3,18.1-33.1,23.8
	c-1,0.4-1.7,1.3-1.7,2.4v10.4c0,14.6,11.7,28,29.3,28c15.7,0,28.5-12.6,28.5-28v-23.6C552.2,314.7,551.4,313.6,550.3,313.3z"/>
<path class="st13" d="M508.1,339.4v-18.7c-3.7,2.3-7.7,4.3-12,5.9c-1,0.4-1.7,1.3-1.7,2.4v10.4c0,14.6,11.7,28,29.3,28
	c2.3,0,4.5-0.3,6.6-0.8C516.7,363.6,508.1,352,508.1,339.4z"/>
<path class="st14" d="M520.4,167c-85.9,0-147.7,55.1-147.7,183.8c0,145.8,61.7,184.4,147.7,184.4s151.3-42.3,151.3-184.4
	C671.8,198.9,606.4,167,520.4,167z M521,486.8c-59.5,0-90.6-34.9-90.6-135.9c0-89.1,32.4-136.1,91.9-136.1s91.9,30.9,91.9,136.1
	C614.2,449.3,580.5,486.8,521,486.8z"/>
<path class="st15" d="M321.3,433.5h-35.5V328.9c0-11.6-9.4-21-21-21h-8.3c-11.6,0-21,9.4-21,21l0,0v104.6H135.3c-6.6,0-12-5.4-12-12
	c0-1.9,0.5-3.9,1.4-5.6l106.1-200.8c5.4-10.2,1.5-22.9-8.7-28.3c-0.3-0.1-0.6-0.3-0.8-0.4l-6.3-3c-10.1-4.8-22.2-0.8-27.4,9.1
	l-129.4,242c-2.2,4.1-3.4,8.7-3.4,13.4l0,0c0,15.7,12.7,28.4,28.4,28.4c0,0,0,0,0,0h152.3v66.2c0,13.9,11.2,25.1,25.1,25.1l0,0h0
	c13.9,0,25.1-11.2,25.1-25.1l0,0v-66.2h35.5c11.8,0,21.4-9.6,21.4-21.4l0,0C342.8,443.1,333.2,433.5,321.3,433.5L321.3,433.5z"/>
<path class="st15" d="M979.3,433.5h-35.5V328.9c0-11.6-9.4-21-21-21h-8.3c-11.6,0-21,9.4-21,21l0,0v104.6H793.3c-6.6,0-12-5.4-12-12
	c0-1.9,0.5-3.9,1.4-5.6l106.1-200.8c5.4-10.2,1.5-22.9-8.7-28.3c-0.3-0.1-0.6-0.3-0.8-0.4l-6.3-3c-10.1-4.8-22.2-0.8-27.4,9.1
	l-129.4,242c-2.2,4.1-3.4,8.7-3.4,13.4l0,0c0,15.7,12.7,28.4,28.4,28.4l0,0h152.3v66.2c0,13.9,11.2,25.1,25.1,25.1c0,0,0,0,0,0l0,0
	c13.9,0,25.1-11.2,25.1-25.1c0,0,0,0,0,0v-66.2h35.5c11.8,0,21.4-9.6,21.4-21.4l0,0l0,0C1000.8,443.1,991.2,433.5,979.3,433.5
	L979.3,433.5z"/>
<path class="st16" d="M331.1,421.3h-35.5V316.6c0-11.6-9.4-21-21-21l0,0h-8.3c-11.6,0-21,9.4-21,21v0v104.6H145.1
	c-6.6,0-12-5.4-12-12c0-1.9,0.5-3.9,1.4-5.6l106.1-200.8c5.4-10.2,1.5-22.9-8.7-28.3c-0.3-0.1-0.6-0.3-0.8-0.4l-6.3-3
	c-10.1-4.8-22.2-0.8-27.4,9.1L68,422.3c-2.2,4.1-3.4,8.7-3.4,13.4l0,0c0,15.7,12.7,28.4,28.4,28.4h152.3v66.2
	c0,13.9,11.2,25.1,25.1,25.1l0,0h0c13.9,0,25.1-11.2,25.1-25.1l0,0v-66.2h35.5c11.8,0,21.4-9.6,21.4-21.4l0,0
	C352.6,430.9,343,421.3,331.1,421.3z"/>
<path class="st16" d="M997.7,421.3h-35.5V316.6c0-11.6-9.4-21-21-21l0,0h-8.3c-11.6,0-21,9.4-21,21v0v104.6H811.7
	c-6.6,0-12-5.4-12-12c0-1.9,0.5-3.9,1.4-5.6l106.1-200.8c5.4-10.2,1.5-22.9-8.7-28.3c-0.3-0.1-0.6-0.3-0.8-0.4l-6.3-3
	c-10.1-4.8-22.2-0.8-27.4,9.1l-129.4,242c-2.2,4.1-3.4,8.7-3.4,13.4l0,0c0,15.7,12.7,28.4,28.4,28.4l0,0h152.3v66.2
	c0,13.9,11.2,25.1,25.1,25.1c0,0,0,0,0,0l0,0c13.9,0,25.1-11.2,25.1-25.1c0,0,0,0,0,0v-66.2h35.5c11.8,0,21.4-9.6,21.4-21.4l0,0l0,0
	C1019.1,430.9,1009.5,421.3,997.7,421.3C997.7,421.3,997.7,421.3,997.7,421.3z"/>
<path class="st16" d="M540,156c-85.9,0-147.7,55.1-147.7,183.8c0,145.8,61.7,184.4,147.7,184.4s151.3-42.3,151.3-184.4
	C691.4,187.8,626,156,540,156z M540.6,475.8c-59.5,0-90.6-34.9-90.6-135.9c0-89.1,32.4-136.1,91.9-136.1s91.9,30.9,91.9,136.1
	C633.8,438.3,600.1,475.8,540.6,475.8L540.6,475.8z"/>
<path class="st17" d="M1006.9,419.5c10.8,3.9,22.7-1.6,26.7-12.4c3.9-10.8-1.6-22.7-12.4-26.7c-3.7-1.3-7.6-1.6-11.5-0.8l0.5,10.7
	l-5.1-9.2c-5,2.3-8.8,6.6-10.7,11.7c-0.7,1.8-1.1,3.7-1.2,5.6C992.5,407.8,998.1,416.4,1006.9,419.5z"/>
<path class="st16" d="M1031.9,543.8c-1.8-9.1,6-17.2,13.6-22.4s16.6-10.4,19.2-19.3c3.8-12.8-7.4-24.5-16.1-34.6
	c-6.5-7.5-12-15.7-16.5-24.6c-1.8-3.5-3.5-7.2-4-11.2c-0.7-5.7,1.1-11.3,3-16.7c6.1-18,12.7-35.9,19.6-53.7"/>
<path class="st16" d="M1007.7,416.8c10.8,3.9,22.7-1.6,26.7-12.4c3.9-10.8-1.6-22.7-12.4-26.7c-3.7-1.3-7.6-1.6-11.5-0.8l0.5,10.7
	l-5.1-9.2c-5,2.3-8.8,6.6-10.7,11.7c-0.7,1.8-1.1,3.7-1.2,5.6C993.4,405,999,413.6,1007.7,416.8z"/>
<path class="st17" d="M1029.4,357.6c2.4-6.7,8.1-11.6,15-13.2l1.7,10.2l3.2-10.7c11.5,0.2,20.7,9.6,20.5,21.1
	c-0.2,11.5-9.6,20.7-21.1,20.5c-11.5-0.2-20.7-9.6-20.5-21.1C1028.2,362.1,1028.6,359.8,1029.4,357.6z"/>
<path class="st16" d="M1030.5,353.9c2.4-6.7,8.1-11.6,15-13.2l1.7,10.2l3.2-10.7c11.5,0.2,20.7,9.6,20.5,21.1
	c-0.2,11.5-9.6,20.7-21.1,20.5c-11.5-0.2-20.7-9.6-20.5-21.1C1029.3,358.4,1029.8,356.1,1030.5,353.9z"/>
<path class="st17" d="M1045,467.6c10.8,3.9,22.7-1.7,26.7-12.5c3.3-9.1-0.1-19.3-8.2-24.6l-2.4,8.2l-1.7-10.3c0,0,0,0-0.1,0
	c-10.8-3.9-22.7,1.7-26.7,12.5C1028.6,451.7,1034.2,463.7,1045,467.6C1045,467.6,1045,467.6,1045,467.6L1045,467.6z"/>
<path class="st16" d="M1046,463.9c10.8,3.9,22.7-1.7,26.7-12.5c3.3-9.1-0.1-19.3-8.2-24.6l-2.4,8.2l-1.7-10.3c0,0,0,0-0.1,0
	c-10.8-3.9-22.7,1.7-26.7,12.5C1029.6,448,1035.2,460,1046,463.9C1046,463.9,1046,463.9,1046,463.9L1046,463.9z"/>
<path class="st17" d="M1023.3,502.2c2,11.3,12.8,18.9,24.1,16.9s18.9-12.8,16.9-24.1c-2-11.3-12.8-18.9-24.1-16.9
	c-5.1,0.9-9.7,3.7-12.9,7.8l9.3,14l-12.7-7.4C1023,495.6,1022.7,498.9,1023.3,502.2z"/>
<path class="st16" d="M1024.2,499.4c2,11.3,12.8,18.9,24.1,16.9s18.9-12.8,16.9-24.1c-2-11.3-12.8-18.9-24.1-16.9
	c-5.1,0.9-9.7,3.7-12.9,7.8l9.3,14l-12.7-7.4C1023.8,492.8,1023.6,496.2,1024.2,499.4z"/>
<path class="st17" d="M9,470.2c7.1,2.6,14.9-1.1,17.5-8.2c2.6-7.1-1.1-14.9-8.2-17.5c-2.4-0.9-5-1.1-7.5-0.5l0.3,7l-3.3-6
	c-3.3,1.5-5.8,4.3-7,7.7c-0.4,1.2-0.7,2.4-0.8,3.7C-0.4,462.5,3.3,468.2,9,470.2z"/>
<path class="st16" d="M25.5,551.9c-1.2-6,3.9-11.3,8.9-14.7s10.9-6.8,12.6-12.7c2.5-8.4-4.9-16.1-10.6-22.8
	c-4.2-4.9-7.9-10.3-10.9-16.1c-1.3-2.3-2.2-4.8-2.6-7.3c-0.5-3.7,0.7-7.4,2-11c4-11.8,8.3-23.6,12.9-35.2"/>
<path class="st16" d="M9.6,468.4c7.1,2.6,14.9-1.1,17.5-8.2c2.6-7.1-1.1-14.9-8.2-17.5c-2.4-0.9-5-1.1-7.5-0.5l0.3,7l-3.3-6
	c-3.3,1.5-5.8,4.3-7,7.7c-0.4,1.2-0.7,2.4-0.8,3.7C0.2,460.7,3.8,466.4,9.6,468.4z"/>
<path class="st17" d="M23.8,429.5c1.6-4.4,5.3-7.6,9.8-8.7l1.1,6.7l2.1-7c7.6,0.1,13.6,6.3,13.5,13.9S44,448,36.5,447.9
	S22.9,441.6,23,434C23,432.5,23.3,431,23.8,429.5z"/>
<path class="st16" d="M24.6,427.1c1.6-4.4,5.3-7.6,9.8-8.7l1.1,6.7l2.1-7c7.6,0.1,13.6,6.3,13.5,13.9s-6.3,13.6-13.9,13.5
	s-13.6-6.3-13.5-13.9C23.8,430.1,24,428.6,24.6,427.1z"/>
<path class="st17" d="M34.1,501.8c7.1,2.6,14.9-1.1,17.5-8.2c2.2-6-0.1-12.7-5.4-16.1l-1.6,5.4l-1.1-6.8c0,0,0,0,0,0
	c-7.1-2.6-14.9,1.1-17.5,8.2C23.3,491.4,26.9,499.2,34.1,501.8C34,501.8,34,501.8,34.1,501.8z"/>
<path class="st16" d="M34.7,499.4c7.1,2.6,14.9-1.1,17.5-8.2c2.2-6-0.1-12.7-5.4-16.1l-1.6,5.4l-1.1-6.8c0,0,0,0,0,0
	c-7.1-2.6-14.9,1.1-17.5,8.2C23.9,489,27.6,496.8,34.7,499.4L34.7,499.4L34.7,499.4z"/>
<path class="st17" d="M19.8,524.5c1.3,7.4,8.4,12.4,15.8,11.1c7.4-1.3,12.4-8.4,11.1-15.8c-1.3-7.4-8.4-12.4-15.8-11.1
	c-3.4,0.6-6.4,2.4-8.5,5.1l6.1,9.2l-8.3-4.9C19.6,520.2,19.4,522.4,19.8,524.5z"/>
<path class="st16" d="M20.4,522.7c1.3,7.4,8.4,12.4,15.8,11.1c7.4-1.3,12.4-8.4,11.1-15.8c-1.3-7.4-8.4-12.4-15.8-11.1
	c-3.4,0.6-6.4,2.4-8.5,5.1l6.1,9.2l-8.3-4.9C20.1,518.4,20,520.6,20.4,522.7z"/>
</svg>
