<?xml version="1.0" encoding="utf-8"?>
<!-- Generator: Adobe Illustrator 24.2.3, SVG Export Plug-In . SVG Version: 6.00 Build 0)  -->
<svg version="1.1" id="ba65d029-7b6e-4d16-9739-50ea7099b679"
	 xmlns="http://www.w3.org/2000/svg" xmlns:xlink="http://www.w3.org/1999/xlink" x="0px" y="0px" viewBox="0 0 1177.1 711.4"
	 style="enable-background:new 0 0 1177.1 711.4;" xml:space="preserve">
<style type="text/css">
	.st0{fill:#2F2E41;}
	.st1{opacity:0.1;fill:#6C63FF;enable-background:new    ;}
	.st2{fill:#FFB9B9;}
	.st3{fill:#E6E6E6;}
	.st4{fill:#6C63FF;}
	.st5{fill:#3F3D56;}
	.st6{fill:#FFFFFF;}
	.st7{fill:#9F616A;}
	.st8{opacity:0.2;enable-background:new    ;}
</style>
<path class="st0" d="M893.3,146.9l-68.5,0.7c-3.2-15.9-14-57.4-4.3-68.8c0.9-8.9,8.7-15.4,17.6-14.9l0,0
	c10.6-16.6,28.3-14.1,40.3-3.7c12,4.2,16.6,11.5,15,21.5c8.9,7.8,10.6,17.3,6.6,28.1L893.3,146.9z"/>
<path class="st1" d="M58.7,463.7C76,537.9,112.8,602,170.9,633.1c120.7,64.6,392.9,31.3,596.1-7c102.6-19.3,195.8-72.5,264.5-151.2
	L58.7,463.7z"/>
<path class="st1" d="M1124,114.4h-111.5c-5.3,0-9.6-4.3-9.6-9.6s4.3-9.6,9.6-9.6h19.3c-5.3,0-9.6-4.3-9.6-9.6s4.3-9.6,9.6-9.6h-13.8
	c-5.3,0-9.6-4.3-9.6-9.6s4.3-9.6,9.6-9.6h58.2c-12.9-6-28-10.3-45.4-12.5c-158.6-20.4-215.3-6.9-235.3,7
	c-24.7,17.1-52.2,29.7-81.5,35.7C616.2,107,433.1,131.3,267.2,79C184.8,53,123.5,97,86.7,170.3h1056.6c-1.4-21.3-5.5-41-13.1-58.2
	C1128.5,113.6,1126.3,114.4,1124,114.4z"/>
<path class="st1" d="M49.2,308.8c-4.3,43.2-2.8,86.7,4.3,129.5l978.7,35.8c27.2-31.3,50.1-66.2,68-103.7L49.2,308.8z M436.3,401.2
	H417c5.3,0,9.6,4.3,9.6,9.6c0,5.3-4.3,9.6-9.6,9.6H305.6c-5.3,0-9.6-4.3-9.6-9.6c0-5.3,4.3-9.6,9.6-9.6h19.3c-5.3,0-9.6-4.3-9.6-9.6
	c0-5.3,4.3-9.6,9.6-9.6l0,0h-13.8c-5.3,0-9.6-4.3-9.6-9.6c0-5.3,4.3-9.6,9.6-9.6l0,0h111.5c5.3,0,9.6,4.3,9.6,9.6
	c0,5.3-4.3,9.6-9.6,9.6h13.8c5.3,0,9.6,4.3,9.6,9.6C445.9,396.8,441.6,401.2,436.3,401.2L436.3,401.2z"/>
<path class="st1" d="M1143.4,171L74.9,197c-13,33.4-21.6,71.2-25.6,110.3h1075.3c7-23,12.2-46.5,15.5-70.3
	C1143.4,214,1144.7,191.7,1143.4,171z M266.3,256.2H247c5.3,0,9.6,4.3,9.6,9.6c0,5.3-4.3,9.6-9.6,9.6H135.6c-5.3,0-9.6-4.3-9.6-9.6
	c0-5.3,4.3-9.6,9.6-9.6h19.3c-5.3,0-9.6-4.3-9.6-9.6s4.3-9.6,9.6-9.6h-13.8c-5.3,0-9.6-4.3-9.6-9.6c0-5.3,4.3-9.6,9.6-9.6h111.5
	c5.3,0,9.6,4.3,9.6,9.6c0,5.3-4.3,9.6-9.6,9.6h13.8c5.3,0,9.6,4.3,9.6,9.6S271.6,256.2,266.3,256.2z"/>
<path class="st2" d="M886.7,189.1l-49.4-6.8l-9.9-14.4c13.6-9,18.4-21.6,12.2-38.8l34.2-0.8c-1.6,15.3,3.4,27.1,17.5,34.2
	L886.7,189.1z"/>
<path class="st3" d="M825.6,634.8l-1.9,25.8c-0.3,4.5,3.1,8.5,7.6,8.8c0.4,0,0.7,0,1.1,0l13.3-0.8c2.3-0.1,4.1-2.1,3.9-4.4
	c0-0.3-0.1-0.5-0.1-0.8l-7.4-29.5L825.6,634.8z"/>
<path class="st3" d="M868.5,634l-7.4,29.5c-0.6,2.2,0.8,4.5,3.1,5.1c0.3,0.1,0.5,0.1,0.8,0.1l13.3,0.8c4.5,0.3,8.4-3.2,8.7-7.7
	c0-0.4,0-0.7,0-1.1l-1.9-25.8L868.5,634z"/>
<polygon class="st4" points="885.9,638.4 868,636.6 850.2,446.1 843.4,636 825.9,635.4 796.2,372.3 909.5,372.3 "/>
<circle class="st2" cx="858.6" cy="107" r="34.2"/>
<path class="st4" d="M926.2,378.4l-138.4,1.5c20.5-78.2,32.8-150.8,11.4-200.7l34.2-16.7c16.5,17.2,34.9,15.4,54.7-1.5l32.7,8.4
	C915.3,234.8,917.8,304.9,926.2,378.4z"/>
<path class="st2" d="M749.8,297.8l85.9,34.2l19.2,5.6c3.5,1,7.2-1,8.2-4.5c0-0.1,0-0.2,0.1-0.3l0,0c0.8-3.1-0.8-6.4-3.8-7.7
	l-19.9-6.1l-60.1-35L792,251L765.8,237L749.8,297.8z"/>
<path class="st4" d="M750.6,235.5c16.3,6.4,29.3,17.3,39.5,31.9l31.9-46.4l-22.8-41.8L750.6,235.5z"/>
<path class="st0" d="M897.1,101.4c-13.9-3.6-27.5-4.1-40.8,0.5c-8.5,4.1-18.6,3.7-29.9,0.3V68.1l61,1.6L897.1,101.4z"/>
<path class="st5" d="M835.5,257.9c-5.6,0-10.1,4.5-10.1,10.1l4,83.7c0,5.6,4.5,10.1,10.1,10.1h45.7c5.6,0,10.1-4.5,10.1-10.1l4-83.7
	c0-5.6-4.5-10.1-10.1-10.1H835.5z"/>
<path class="st2" d="M965.2,291.5l-74.9,29.8l-5.7,2.2c-0.2,0.1-0.4,0.1-0.5,0.2l-18.9,5.6c-2.4,0.7-5.8-2.5-7.7-4.8
	c-2-2.2-2.1-5.6-0.2-7.9c0.3-0.3,0.5-0.6,0.9-0.8c0.7-0.6,1.6-0.9,2.5-1.1l18.9-3.7c0.7-0.1,1.3-0.4,1.9-0.7l8.8-5.1l45.8-26.7
	c2.6-1.5,3.8-4.7,2.7-7.6l-8.7-23c-1.1-2.9,0.1-6.2,2.9-7.7l14.5-7.8c3-1.6,6.8-0.5,8.4,2.5c0.2,0.4,0.4,0.9,0.5,1.4l12.6,47.9
	C969.7,287.2,968.1,290.3,965.2,291.5z"/>
<path class="st4" d="M969.6,227.1c-16.3,6.4-29.3,17.3-39.5,31.9l-31.9-46.4l22.8-43.3L969.6,227.1z"/>
<path class="st6" d="M881.3,137.4c-15,6.2-30.7,6-47,0c4.8-8.1-2.4-14.5-6-22.7l61-1.8C884.7,120.1,877.8,128.5,881.3,137.4z"/>
<polygon class="st6" points="888.7,114.3 888,113.6 889,112.6 894.9,105.6 895.7,106.3 889.7,113.3 "/>
<rect x="826.3" y="109" transform="matrix(0.6402 -0.7682 0.7682 0.6402 210.7434 675.8176)" class="st6" width="1" height="7.8"/>
<rect x="875.8" y="128.2" transform="matrix(0.537 -0.8436 0.8436 0.537 301.4601 806.6316)" class="st6" width="19.6" height="1"/>
<rect x="829.6" y="118.9" transform="matrix(0.8437 -0.5369 0.5369 0.8437 60.6837 465.7634)" class="st6" width="1" height="19.6"/>
<path class="st6" d="M892.3,303.7v18.1l-6.3,2.5c-0.2,0.1-0.4,0.1-0.6,0.2l-21.1,6.2c-2.7,0.8-6.4-2.8-8.6-5.4
	c-2.2-2.5-2.3-6.3-0.2-8.9c0.3-0.3,0.6-0.6,1-0.9c0.8-0.6,1.8-1.1,2.8-1.2l21.1-4.2c0.8-0.1,1.5-0.4,2.2-0.8L892.3,303.7z"/>
<path class="st5" d="M901.5,239h-3.6c0-51.1-10.5-86.7-20.8-86.7l-0.9-3.6c9.2,0,15.1,14.8,18.4,27.3
	C899,192.8,901.5,215.2,901.5,239z"/>
<path class="st5" d="M818.3,226.4h-3.6c0-46.8,10.6-75.9,26.2-75.9l-0.9,3.6C829.2,154.1,818.3,176.5,818.3,226.4z"/>
<circle class="st5" cx="899.7" cy="239.9" r="9"/>
<path class="st5" d="M803.9,248.1h-3.6c0-13,7.3-23.5,16.3-23.5v3.6C809.6,228.2,803.9,237.1,803.9,248.1z"/>
<path class="st5" d="M832.8,248.1h-3.6c0-11-5.7-19.9-12.6-19.9v-3.6C825.5,224.6,832.8,235.1,832.8,248.1z"/>
<circle class="st5" cx="831" cy="249" r="3.6"/>
<circle class="st5" cx="802.1" cy="249" r="3.6"/>
<path class="st0" d="M366.6,127.5l-63.5,10.7c-3.2,0.6-6.4-1.4-7.3-4.6c-4.6-16.5-14.2-38.1-4.9-49c1-9.5,9.2-16.5,18.8-15.9l0,0
	c11.3-17.7,30.2-15.1,43-4c12.8,4.4,17.7,12.3,16,23c5.5,4.9,8.5,10.3,9.1,16.3c0.6,6.8-1.8,13.4-6.5,18.4L366.6,127.5z"/>
<path class="st7" d="M356.7,177.5l-49.2-2.9c4.8-11.1,6.7-21.7,4.8-31.8H349C348.9,150.5,352.8,164,356.7,177.5z"/>
<path class="st3" d="M297.5,632.1l-2,27.6c-0.4,4.8,3.3,9,8.1,9.4c0.4,0,0.8,0,1.2,0l14.2-0.9c2.5-0.2,4.3-2.3,4.2-4.7
	c0-0.3-0.1-0.5-0.1-0.8l-7.9-31.5L297.5,632.1z"/>
<path class="st3" d="M343.4,631.2l-7.9,31.5c-0.6,2.4,0.9,4.8,3.3,5.4c0.3,0.1,0.5,0.1,0.8,0.1l14.2,0.9c4.8,0.3,9-3.4,9.3-8.2
	c0-0.4,0-0.8,0-1.2l-2-27.6L343.4,631.2z"/>
<polygon class="st4" points="361.9,635.9 342.8,634 323.8,430.5 316.6,633.4 297.8,632.7 266.1,351.8 387.1,351.8 "/>
<circle class="st7" cx="331.6" cy="117.9" r="36.5"/>
<path class="st0" d="M372.8,100.5c-14.8-2.6-29.4-2.9-43.6,0.3c-9,3-19.9,2.7-31.9,0.2V76.4l65.1,1.2L372.8,100.5z"/>
<path class="st6" d="M356,147.3c-16,6.6-32.7,6.4-50.2,0c5.1-8.7-2.5-15.5-6.4-24.2l65.1-1.9C359.5,128.7,352.2,137.7,356,147.3z"/>
<rect x="297.3" y="117" transform="matrix(0.6402 -0.7682 0.7682 0.6402 14.0936 272.3303)" class="st6" width="1" height="8.3"/>
<rect x="350.1" y="137.4" transform="matrix(0.537 -0.8436 0.8436 0.537 50.5474 367.9742)" class="st6" width="20.9" height="1"/>
<rect x="300.7" y="127.5" transform="matrix(0.8437 -0.5369 0.5369 0.8437 -26.962 183.2876)" class="st6" width="1" height="20.9"/>
<path class="st4" d="M262.2,284.6l-28-17.4l23.9-69.9c2.7-7.2,7.8-13.3,14.4-17.1l8-4.7l0.7,70.5L262.2,284.6z"/>
<path class="st4" d="M383.1,318.5l-4.1-35.5c-0.2-18.7,3-36.8,10.6-53.5l3.9-52.1l-42.4-17.4c-0.1,0.9-0.2,1.7-0.4,2.6l-19.9,9.9
	l-19.4-4.4l0.1-6.2l-38.6,17.4c12.8,59.3,5.8,120.9-16.1,193.7l50.8,13.9l0.4-24.4l45.3-3.2c0.5,7.9,0.8,15.7,1.1,23.3
	c25.6,9.4,26.4,9.3,49.7-4.2C394.7,359,387.4,338.7,383.1,318.5z"/>
<polygon class="st4" points="448.4,275.9 422.3,267.2 380.7,218.7 393.4,177.5 451.3,258.5 "/>
<path class="st3" d="M366.7,313.4c0.9,3.9,4.8,6.3,8.7,5.5l22.1-5l-3.2-14.1l-22.1,5C368.3,305.7,365.9,309.5,366.7,313.4
	L366.7,313.4z"/>
<path class="st4" d="M386.6,297.1l12.5,23.2c21.1-5.9,39.4-24.4,56.9-46.3l-4.8-15.4l-29.9,7.7L386.6,297.1z"/>
<polygon class="st3" points="223.1,224.5 247.2,228.8 302.2,307 273,300.2 "/>
<path class="st5" d="M218.8,223.5c-1.1,0-2,0.9-2,2.1c0,0.4,0.1,0.8,0.3,1.1l51.4,78c0.3,0.4,0.7,0.7,1.2,0.9l23.9,5.6
	c1.1,0.3,2.2-0.4,2.5-1.5c0.1-0.6,0-1.2-0.3-1.6l-56.5-80.3c-0.3-0.4-0.8-0.7-1.3-0.8l-18.9-3.4C219.1,223.5,219,223.5,218.8,223.5z
	"/>
<path class="st3" d="M250.9,279.3l1.4,14.4l22.6-2.2c4-0.4,6.9-3.9,6.5-7.9s-3.9-6.9-7.9-6.5L250.9,279.3z"/>
<path class="st4" d="M231.3,277.7c0.1,10.2,8.4,18.5,18.6,18.5h3.7l2.7-22.5l-22.4-8L231.3,277.7z"/>
<polygon class="st6" points="362.7,123.6 362,122.9 363.1,121.8 369.5,114.4 370.2,115 363.8,122.5 "/>
<rect x="151.3" y="667.9" class="st5" width="888" height="2"/>
<path class="st3" d="M490.3,666.9h210V412.2c0-13.5-13.3-24.5-29.6-24.5H519.9c-16.3,0-29.6,11-29.6,24.5V666.9z"/>
<path class="st6" d="M506.3,656.4h178V440.5c0-11.4-11.3-20.7-25.1-20.7H531.4c-13.8,0-25.1,9.3-25.1,20.7V656.4z"/>
<path class="st5" d="M488.7,367.9c-5.2,0-9.4,3.5-9.4,7.8v22.4c0,4.3,4.2,7.8,9.4,7.8h213.2c5.2,0,9.4-3.5,9.4-7.8v-22.4
	c0-4.3-4.2-7.8-9.4-7.8H488.7z"/>
<path class="st5" d="M532.5,628.7c-5.1,0-9.2,4.1-9.2,9.2l0,0c0,5.1,4.1,9.2,9.2,9.2h17.2v-18.4H532.5z"/>
<path class="st4" d="M565.5,628.7h-16.7v18.4h16.7c5.1,0,9.2-4.1,9.2-9.2l0,0C574.7,632.8,570.6,628.7,565.5,628.7z"/>
<path class="st8" d="M571.5,631c1.5,1.7,2.3,3.8,2.3,6l0,0c0,5.1-4.1,9.2-9.2,9.2h-15.8v0.9h16.7c5.1,0,9.2-4.1,9.2-9.2l0,0
	C574.7,635.2,573.5,632.7,571.5,631z"/>
<path class="st5" d="M610.2,490.2c-3.5-3.7-9.3-3.9-13-0.4l0,0c-3.7,3.5-3.9,9.3-0.4,13l11.8,12.5l13.4-12.6L610.2,490.2z"/>
<path class="st4" d="M632.8,514.2L621.3,502L608,514.6l11.5,12.2c3.5,3.7,9.3,3.9,13,0.4l0,0C636.1,523.7,636.3,517.9,632.8,514.2z"
	/>
<path class="st8" d="M635.3,520.1c-0.2,2.2-1.2,4.2-2.8,5.8l0,0c-3.7,3.5-9.5,3.3-13-0.4L608.6,514l-0.7,0.6l11.5,12.2
	c3.5,3.7,9.3,3.9,13,0.4l0,0C634.4,525.4,635.4,522.8,635.3,520.1z"/>
<path class="st5" d="M561.2,519.2c-3.5-3.7-9.3-3.9-13-0.4l0,0c-3.7,3.5-3.9,9.3-0.4,13l11.8,12.5l13.4-12.6L561.2,519.2z"/>
<path class="st4" d="M583.8,543.2L572.3,531L559,543.6l11.5,12.2c3.5,3.7,9.3,3.9,13,0.4l0,0C587.1,552.7,587.3,546.9,583.8,543.2z"
	/>
<path class="st8" d="M586.3,549.1c-0.2,2.2-1.2,4.2-2.8,5.8l0,0c-3.7,3.5-9.5,3.3-13-0.4L559.6,543l-0.7,0.6l11.5,12.2
	c3.5,3.7,9.3,3.9,13,0.4l0,0C585.4,554.4,586.4,551.8,586.3,549.1z"/>
<path class="st5" d="M610.2,546.2c-3.5-3.7-9.3-3.9-13-0.4l0,0c-3.7,3.5-3.9,9.3-0.4,13l11.8,12.5l13.4-12.6L610.2,546.2z"/>
<path class="st4" d="M632.8,570.2L621.3,558L608,570.6l11.5,12.2c3.5,3.7,9.3,3.9,13,0.4l0,0C636.1,579.7,636.3,573.9,632.8,570.2z"
	/>
<path class="st8" d="M635.3,576.1c-0.2,2.2-1.2,4.2-2.8,5.8l0,0c-3.7,3.5-9.5,3.3-13-0.4L608.6,570l-0.7,0.6l11.5,12.2
	c3.5,3.7,9.3,3.9,13,0.4l0,0C634.4,581.4,635.4,578.8,635.3,576.1z"/>
<path class="st5" d="M640.1,603.7c3.6-3.5,3.7-9.3,0.2-13l0,0c-3.5-3.6-9.3-3.7-13-0.2l-12.4,12l12.8,13.2L640.1,603.7z"/>
<path class="st4" d="M616.3,626.6l12-11.6l-12.8-13.2l-12,11.6c-3.6,3.5-3.7,9.3-0.2,13l0,0C606.9,630,612.7,630.1,616.3,626.6z"/>
<path class="st8" d="M610.4,629.1c-2.2-0.2-4.3-1.2-5.8-2.8l0,0c-3.5-3.7-3.4-9.5,0.2-13l11.4-11l-0.7-0.7l-12,11.6
	c-3.6,3.5-3.7,9.3-0.2,13l0,0C605.2,628.3,607.8,629.3,610.4,629.1z"/>
<path class="st5" d="M574.1,574.7c3.6-3.5,3.7-9.3,0.2-13l0,0c-3.5-3.6-9.3-3.7-13-0.2l-12.4,12l12.8,13.2L574.1,574.7z"/>
<path class="st4" d="M550.3,597.6l12-11.6l-12.8-13.2l-12,11.6c-3.6,3.5-3.7,9.3-0.2,13l0,0C540.9,601,546.7,601.1,550.3,597.6z"/>
<path class="st8" d="M544.4,600.1c-2.2-0.2-4.3-1.2-5.8-2.8l0,0c-3.5-3.7-3.4-9.5,0.2-13l11.4-11l-0.7-0.7l-12,11.6
	c-3.6,3.5-3.7,9.3-0.2,13l0,0C539.2,599.3,541.8,600.3,544.4,600.1z"/>
<path class="st5" d="M668.1,539.7c3.6-3.5,3.7-9.3,0.2-13l0,0c-3.5-3.6-9.3-3.7-13-0.2l-12.4,12l12.8,13.2L668.1,539.7z"/>
<path class="st4" d="M644.3,562.6l12-11.6l-12.8-13.2l-12,11.6c-3.6,3.5-3.7,9.3-0.2,13l0,0C634.9,566,640.7,566.1,644.3,562.6z"/>
<path class="st8" d="M638.4,565.1c-2.2-0.2-4.3-1.2-5.8-2.8l0,0c-3.5-3.7-3.4-9.5,0.2-13l11.4-11l-0.7-0.7l-12,11.6
	c-3.6,3.5-3.7,9.3-0.2,13l0,0C633.2,564.3,635.8,565.3,638.4,565.1z"/>
<path class="st5" d="M647.2,612.2c-3.5-3.7-9.3-3.9-13-0.4l0,0c-3.7,3.5-3.9,9.3-0.4,13l11.8,12.5l13.4-12.6L647.2,612.2z"/>
<path class="st4" d="M669.8,636.2L658.3,624L645,636.6l11.5,12.2c3.5,3.7,9.3,3.9,13,0.4l0,0C673.1,645.7,673.3,639.9,669.8,636.2z"
	/>
<path class="st8" d="M672.3,642.1c-0.2,2.2-1.2,4.2-2.8,5.8l0,0c-3.7,3.5-9.5,3.3-13-0.4L645.6,636l-0.7,0.6l11.5,12.2
	c3.5,3.7,9.3,3.9,13,0.4l0,0C671.4,647.4,672.4,644.8,672.3,642.1z"/>
<path class="st5" d="M582.2,611.2c-3.5-3.7-9.3-3.9-13-0.4l0,0c-3.7,3.5-3.9,9.3-0.4,13l11.8,12.5l13.4-12.6L582.2,611.2z"/>
<path class="st4" d="M604.8,635.2L593.3,623L580,635.6l11.5,12.2c3.5,3.7,9.3,3.9,13,0.4l0,0C608.1,644.7,608.3,638.9,604.8,635.2z"
	/>
<path class="st8" d="M607.3,641.1c-0.2,2.2-1.2,4.2-2.8,5.8l0,0c-3.7,3.5-9.5,3.3-13-0.4L580.6,635l-0.7,0.6l11.5,12.2
	c3.5,3.7,9.3,3.9,13,0.4l0,0C606.4,646.4,607.4,643.8,607.3,641.1z"/>
<path class="st4" d="M600.5,578.2c0,6.3-4.4,11.7-10.6,13c-1.8,0.4-3.6,0.4-5.3,0c-7.2-1.5-11.8-8.5-10.3-15.7
	c1.1-5.2,5.1-9.3,10.3-10.3c1.8-0.4,3.6-0.4,5.3,0C596,566.5,600.5,571.9,600.5,578.2z"/>
<path class="st8" d="M589.9,565.2v26c-1.8,0.4-3.6,0.4-5.3,0v-26C586.3,564.8,588.1,564.8,589.9,565.2z"/>
<path class="st4" d="M606.5,525.2c0,6.3-4.4,11.7-10.6,13c-1.8,0.4-3.6,0.4-5.3,0c-7.2-1.5-11.8-8.5-10.3-15.7
	c1.1-5.2,5.1-9.3,10.3-10.3c1.8-0.4,3.6-0.4,5.3,0C602,513.5,606.5,518.9,606.5,525.2z"/>
<path class="st8" d="M595.9,512.2v26c-1.8,0.4-3.6,0.4-5.3,0v-26C592.3,511.8,594.1,511.8,595.9,512.2z"/>
<path class="st4" d="M606.5,601.2c0,6.3-4.4,11.7-10.6,13c-1.8,0.4-3.6,0.4-5.3,0c-7.2-1.5-11.8-8.5-10.3-15.7
	c1.1-5.2,5.1-9.3,10.3-10.3c1.8-0.4,3.6-0.4,5.3,0C602,589.5,606.5,594.9,606.5,601.2z"/>
<path class="st8" d="M595.9,588.2v26c-1.8,0.4-3.6,0.4-5.3,0v-26C592.3,587.8,594.1,587.8,595.9,588.2z"/>
<path class="st4" d="M639.5,638.2c0,6.3-4.4,11.7-10.6,13c-1.8,0.4-3.6,0.4-5.3,0c-7.2-1.5-11.8-8.5-10.3-15.7
	c1.1-5.2,5.1-9.3,10.3-10.3c1.8-0.4,3.6-0.4,5.3,0C635,626.5,639.5,631.9,639.5,638.2z"/>
<path class="st8" d="M628.9,625.2v26c-1.8,0.4-3.6,0.4-5.3,0v-26C625.3,624.8,627.1,624.8,628.9,625.2z"/>
<path class="st4" d="M668.6,570.1c4.5,4.4,5.4,11.3,2,16.7c-1,1.5-2.2,2.8-3.7,3.8c-6,4.2-14.3,2.6-18.4-3.4
	c-3-4.4-3.1-10.1-0.3-14.6c1-1.5,2.2-2.8,3.7-3.8C657.1,565.2,664.1,565.7,668.6,570.1z"/>
<path class="st8" d="M651.9,568.7l18.7,18c-1,1.5-2.2,2.8-3.7,3.8l-18.7-18C649.2,571.1,650.4,569.8,651.9,568.7z"/>
<path class="st4" d="M672.6,599.1c4.5,4.4,5.4,11.3,2,16.7c-1,1.5-2.2,2.8-3.7,3.8c-6,4.2-14.3,2.6-18.4-3.4
	c-3-4.4-3.1-10.1-0.3-14.6c1-1.5,2.2-2.8,3.7-3.8C661.1,594.2,668.1,594.7,672.6,599.1z"/>
<path class="st8" d="M655.9,597.7l18.7,18c-1,1.5-2.2,2.8-3.7,3.8l-18.7-18C653.2,600.1,654.4,598.8,655.9,597.7z"/>
<path class="st4" d="M553.6,606.1c4.5,4.4,5.4,11.3,2,16.7c-1,1.5-2.2,2.8-3.7,3.8c-6,4.2-14.3,2.6-18.4-3.4
	c-3-4.4-3.1-10.1-0.3-14.6c1-1.5,2.2-2.8,3.7-3.8C542.1,601.2,549.1,601.7,553.6,606.1z"/>
<path class="st8" d="M536.9,604.7l18.7,18c-1,1.5-2.2,2.8-3.7,3.8l-18.7-18C534.2,607.1,535.4,605.8,536.9,604.7z"/>
<rect x="505.8" y="367.9" class="st8" width="5" height="37"/>
<rect x="534.8" y="367.9" class="st8" width="5" height="37"/>
<rect x="563.8" y="367.9" class="st8" width="5" height="37"/>
<rect x="592.8" y="367.9" class="st8" width="5" height="37"/>
<rect x="621.8" y="367.9" class="st8" width="5" height="37"/>
<rect x="650.8" y="367.9" class="st8" width="5" height="37"/>
<rect x="679.8" y="367.9" class="st8" width="5" height="37"/>
</svg>
