<?xml version="1.0" encoding="iso-8859-1"?>
<!-- Generator: Adobe Illustrator 19.0.0, SVG Export Plug-In . SVG Version: 6.00 Build 0)  -->
<svg version="1.1" id="Layer_1" xmlns="http://www.w3.org/2000/svg" xmlns:xlink="http://www.w3.org/1999/xlink" x="0px" y="0px"
	 viewBox="0 0 512.001 512.001" style="enable-background:new 0 0 512.001 512.001;" xml:space="preserve">
<path style="fill:#FFFFFF;" d="M299.558,340.272v77.233c0,46.554,37.74,84.294,84.294,84.294l0,0
	c46.554,0,84.294-37.74,84.294-84.294v-77.233L299.558,340.272L299.558,340.272z"/>
<path style="fill:#FF757C;" d="M468.146,263.038c0-46.554-37.74-84.294-84.294-84.294l0,0c-46.554,0-84.294,37.74-84.294,84.294
	v77.233h168.589L468.146,263.038L468.146,263.038z"/>
<path style="fill:#FFFFFF;" d="M123.113,89.456L68.5,144.069c-32.919,32.919-32.919,86.292,0,119.21l0,0
	c32.919,32.919,86.292,32.919,119.21,0l54.612-54.612L123.113,89.456z"/>
<path style="fill:#FF757C;" d="M296.934,154.056c32.919-32.919,32.919-86.292,0-119.21l0,0c-32.919-32.919-86.292-32.919-119.21,0
	l-54.612,54.612l119.21,119.21L296.934,154.056z"/>
<g>
	<path style="fill:#603813;" d="M478.346,263.039c0-52.105-42.391-94.495-94.495-94.495s-94.495,42.39-94.495,94.495v154.467
		c0,52.104,42.39,94.495,94.495,94.495c52.105,0,94.495-42.39,94.495-94.495V263.039z M309.758,263.039
		c0-40.855,33.238-74.094,74.094-74.094s74.094,33.239,74.094,74.094v67.033H309.758V263.039z M457.945,417.505
		c0,40.855-33.239,74.094-74.094,74.094s-74.094-33.238-74.094-74.094v-67.033h148.189L457.945,417.505L457.945,417.505z"/>
	<path style="fill:#603813;" d="M304.148,161.268c36.843-36.844,36.843-96.792,0-133.635c-36.845-36.844-96.793-36.844-133.636,0
		L61.288,136.856c-36.844,36.844-36.844,96.793,0,133.636c18.421,18.421,42.62,27.632,66.818,27.632s48.395-9.211,66.818-27.632
		L304.148,161.268z M180.497,256.067c-28.889,28.89-75.896,28.89-104.784,0c-28.89-28.89-28.89-75.896,0-104.784l47.399-47.4
		l104.785,104.785L180.497,256.067z M242.323,194.242L137.538,89.456l47.4-47.399c28.89-28.89,75.896-28.889,104.784,0
		c28.89,28.89,28.89,75.896,0,104.784L242.323,194.242z"/>
	<path style="fill:#603813;" d="M438.56,436.519c5.634,0,10.2-4.567,10.2-10.2v-2.04c0-5.634-4.567-10.2-10.2-10.2
		s-10.2,4.567-10.2,10.2v2.04C428.36,431.953,432.927,436.519,438.56,436.519z"/>
	<path style="fill:#603813;" d="M438.56,402.859c5.634,0,10.2-4.567,10.2-10.2v-21.42c0-5.634-4.567-10.2-10.2-10.2
		s-10.2,4.567-10.2,10.2v21.42C428.36,398.292,432.927,402.859,438.56,402.859z"/>
</g>
<g>
</g>
<g>
</g>
<g>
</g>
<g>
</g>
<g>
</g>
<g>
</g>
<g>
</g>
<g>
</g>
<g>
</g>
<g>
</g>
<g>
</g>
<g>
</g>
<g>
</g>
<g>
</g>
<g>
</g>
</svg>
